<?xml version="1.0" encoding="UTF-8"?>
<svg version="1.1" xmlns="http://www.w3.org/2000/svg" width="1024" height="1024">
<path d="M0 0 C1.06130127 -0.02211548 1.06130127 -0.02211548 2.14404297 -0.04467773 C7.53657919 0.06437452 10.64443423 1.49826548 14.9375 4.5625 C27.4301104 20.5396195 25.97426103 49.62591296 25.94599915 68.79716492 C25.94477208 69.87703517 25.94354502 70.95690542 25.94228077 72.06949902 C25.94070312 72.89218934 25.93912546 73.71487967 25.9375 74.5625 C27.21725991 74.55789104 28.49701982 74.55328207 29.81556034 74.54853344 C60.24343198 74.44007645 90.67125116 74.35771375 121.0992699 74.30717335 C124.85027858 74.30092036 128.60128685 74.29444869 132.35229492 74.2878418 C133.09900457 74.28653024 133.84571422 74.28521869 134.61505144 74.2838674 C146.68121978 74.26215328 158.74726813 74.222754 170.81336547 74.17673602 C183.20853643 74.1298598 195.60364487 74.1021811 207.99890083 74.09205753 C215.63798468 74.08522139 223.27672931 74.0636872 230.91570865 74.02291767 C236.78854452 73.99318441 242.66120943 73.99025387 248.53412247 73.99696159 C250.93216595 73.99559298 253.33022301 73.9857403 255.72818947 73.96647263 C272.54856616 73.83802008 287.27144017 74.58784392 300.9375 85.5625 C301.68386719 86.12453125 302.43023438 86.6865625 303.19921875 87.265625 C313.97627827 95.97509925 320.55230416 109.02461529 322.9375 122.5625 C323.07935595 124.45871765 323.1806546 126.35822302 323.25047302 128.25845718 C323.29194741 129.37082111 323.3334218 130.48318504 323.37615299 131.62925696 C323.41500834 132.82218871 323.4538637 134.01512046 323.49389648 135.24420166 C323.55716834 137.11621415 323.55716834 137.11621415 323.62171841 139.02604508 C324.01636093 151.57083765 324.06466114 164.1055072 324.03515625 176.65527344 C324.03322962 179.11929799 324.03176936 181.58332294 324.0307312 184.04734802 C324.02760873 189.28577071 324.02152009 194.52418039 324.01266479 199.76259613 C323.99994281 207.34456085 323.99399656 214.92652039 323.98973143 222.50849405 C323.98271597 234.83037397 323.97195156 247.15224714 323.95800781 259.47412109 C323.95718 260.20683288 323.95635219 260.93954466 323.95549929 261.69445983 C323.94959351 266.90047333 323.94355405 272.10648667 323.9375 277.3125 C323.93055594 283.29443347 323.92369506 289.27636703 323.91699219 295.25830078 C323.91616406 295.99615719 323.91533593 296.73401359 323.91448271 297.49422929 C323.90079117 309.80324751 323.89103867 322.11226586 323.88408184 334.42128968 C323.87961447 341.98687665 323.87160345 349.55244392 323.85893703 357.1180217 C323.84950613 362.89971085 323.84516528 368.68139499 323.8426857 374.4630909 C323.84081417 376.83021561 323.83721419 379.19733969 323.83175278 381.56445885 C323.82453034 384.7963046 323.82349925 388.02809626 323.82397461 391.25994873 C323.82037965 392.19417467 323.81678469 393.12840061 323.81308079 394.09093642 C323.81937248 398.08744924 323.92880725 401.96326065 324.47149563 405.92571545 C324.85517282 408.92000344 324.94747776 411.11606578 324.50709534 414.05360413 C323.65584176 421.25166866 323.80611282 428.46875797 323.82397461 435.70483398 C323.82425715 437.31718443 323.82409744 438.929535 323.8235321 440.54188538 C323.82324667 444.89260698 323.82910281 449.24330068 323.83610606 453.59401584 C323.84238511 458.15431496 323.84294709 462.71461482 323.84413147 467.2749176 C323.84723258 475.90188799 323.85542841 484.52884563 323.86548096 493.15581042 C323.87666871 502.9699743 323.88216113 512.78413881 323.88717639 522.59830749 C323.89718474 541.95222521 323.91364737 561.3061322 323.93470669 580.66004086 C323.93660019 582.62752655 323.9375 584.5950134 323.9375 586.5625 C323.95199863 587.99366688 323.9680513 589.42481834 323.98510742 590.85595703 C324.0397269 595.74001226 324.07399888 600.62402733 324.10229492 605.50830078 C324.11725297 607.60274881 324.13762678 609.69716623 324.16381836 611.79150391 C324.56774254 645.00832762 324.56774254 645.00832762 317.0625 658.125 C316.70953857 658.78137451 316.35657715 659.43774902 315.99291992 660.11401367 C314.99820271 661.94483042 313.97274729 663.75440263 312.9375 665.5625 C312.45667969 666.44421875 311.97585938 667.3259375 311.48046875 668.234375 C309.16559348 672.2615231 307.05250139 674.44939118 302.9375 676.5625 C302.2775 677.5525 301.6175 678.5425 300.9375 679.5625 C298.8732174 680.9824232 296.8562912 682.26177903 294.6875 683.5 C293.7601001 684.03004639 293.7601001 684.03004639 292.81396484 684.57080078 C286.49281422 688.03424791 279.94121693 689.92481495 272.9375 691.5625 C266.7248887 692.9730889 266.7248887 692.9730889 260.9375 695.5625 C260.6075 694.5725 260.2775 693.5825 259.9375 692.5625 C259.2775 692.5625 258.6175 692.5625 257.9375 692.5625 C257.9375 693.2225 257.9375 693.8825 257.9375 694.5625 C251.54117893 695.8166806 251.54117893 695.8166806 248.5625 694.5625 C245.16128493 693.26679902 242.70996034 693.76782276 239.16015625 694.265625 C236.39640751 694.63477246 233.72079936 694.70166497 230.9375 694.5625 C230.6075 694.2325 230.2775 693.9025 229.9375 693.5625 C229.2775 693.8925 228.6175 694.2225 227.9375 694.5625 C227.6075 694.2325 227.2775 693.9025 226.9375 693.5625 C224.88353274 693.97179986 224.88353274 693.97179986 222.9375 694.5625 C222.9375 694.2325 222.9375 693.9025 222.9375 693.5625 C219.89363276 693.48023332 217.86574652 693.58641783 214.9375 694.5625 C214.9375 693.9025 214.9375 693.2425 214.9375 692.5625 C214.2775 692.5625 213.6175 692.5625 212.9375 692.5625 C212.6075 693.2225 212.2775 693.8825 211.9375 694.5625 C208.9675 693.9025 205.9975 693.2425 202.9375 692.5625 C202.9375 693.2225 202.9375 693.8825 202.9375 694.5625 C201.9475 694.5625 200.9575 694.5625 199.9375 694.5625 C199.9375 693.9025 199.9375 693.2425 199.9375 692.5625 C199.38320313 692.706875 198.82890625 692.85125 198.2578125 693 C197.53335937 693.185625 196.80890625 693.37125 196.0625 693.5625 C195.34320312 693.748125 194.62390625 693.93375 193.8828125 694.125 C191.9375 694.5625 191.9375 694.5625 189.9375 694.5625 C189.36 694.76875 188.7825 694.975 188.1875 695.1875 C185.05118652 695.71021891 182.8790594 694.64959804 179.9375 693.5625 C179.2775 693.5625 178.6175 693.5625 177.9375 693.5625 C177.6075 694.2225 177.2775 694.8825 176.9375 695.5625 C175.9475 694.9025 174.9575 694.2425 173.9375 693.5625 C172.9475 693.5625 171.9575 693.5625 170.9375 693.5625 C170.133125 693.541875 169.32875 693.52125 168.5 693.5 C166.00259135 693.45527769 166.00259135 693.45527769 163.9375 694.125 C161.9375 694.5625 161.9375 694.5625 159.6640625 694.09375 C156.80407274 693.53650271 154.22243311 693.46392645 151.3125 693.5 C149.90097656 693.51353516 149.90097656 693.51353516 148.4609375 693.52734375 C147.62820313 693.53894531 146.79546875 693.55054688 145.9375 693.5625 C140.9375 693.5625 135.9375 693.5625 130.9375 693.5625 C130.6075 694.2225 130.2775 694.8825 129.9375 695.5625 C128.6175 695.5625 127.2975 695.5625 125.9375 695.5625 C125.6075 694.5725 125.2775 693.5825 124.9375 692.5625 C124.215625 692.913125 123.49375 693.26375 122.75 693.625 C119.60708839 694.6726372 118.08681004 694.34982751 114.9375 693.5625 C114.6075 693.8925 114.2775 694.2225 113.9375 694.5625 C110.27405389 694.69818319 107.43134279 694.72711426 103.9375 693.5625 C101.29945411 693.95647335 101.29945411 693.95647335 98.9375 694.5625 C98.6075 693.9025 98.2775 693.2425 97.9375 692.5625 C97.6075 693.5525 97.2775 694.5425 96.9375 695.5625 C93.9675 695.2325 90.9975 694.9025 87.9375 694.5625 C87.9375 694.2325 87.9375 693.9025 87.9375 693.5625 C87.26203125 693.57410156 86.5865625 693.58570313 85.890625 693.59765625 C84.55257812 693.61119141 84.55257812 693.61119141 83.1875 693.625 C82.30578125 693.63660156 81.4240625 693.64820313 80.515625 693.66015625 C78.1556162 693.57076198 76.19251476 693.23162821 73.9375 692.5625 C73.9375 693.2225 73.9375 693.8825 73.9375 694.5625 C73.195 694.376875 72.4525 694.19125 71.6875 694 C68.91430122 693.55880929 67.58442332 693.87942301 64.9375 694.5625 C62.49256838 694.11796698 60.30207675 693.35069225 57.9375 692.5625 C57.6075 693.5525 57.2775 694.5425 56.9375 695.5625 C56.6075 694.5725 56.2775 693.5825 55.9375 692.5625 C53.9575 693.5525 51.9775 694.5425 49.9375 695.5625 C48.9475 694.9025 47.9575 694.2425 46.9375 693.5625 C45.9475 694.2225 44.9575 694.8825 43.9375 695.5625 C43.2775 695.2325 42.6175 694.9025 41.9375 694.5625 C36.51803299 693.6374465 36.51803299 693.6374465 31.125 694.125 C30.403125 694.269375 29.68125 694.41375 28.9375 694.5625 C27.9475 693.9025 26.9575 693.2425 25.9375 692.5625 C25.9375 693.2225 25.9375 693.8825 25.9375 694.5625 C23.9575 694.2325 21.9775 693.9025 19.9375 693.5625 C19.9375 693.8925 19.9375 694.2225 19.9375 694.5625 C18.27138095 694.605221 16.60367115 694.60313832 14.9375 694.5625 C14.6075 694.2325 14.2775 693.9025 13.9375 693.5625 C12.42280552 693.33057135 10.89995438 693.15034762 9.375 693 C8.54871094 692.91621094 7.72242188 692.83242188 6.87109375 692.74609375 C6.23300781 692.68550781 5.59492188 692.62492188 4.9375 692.5625 C4.9375 693.2225 4.9375 693.8825 4.9375 694.5625 C-0.39583333 694.5625 -5.72916667 694.5625 -11.0625 694.5625 C-11.0625 693.9025 -11.0625 693.2425 -11.0625 692.5625 C-12.0525 692.5625 -13.0425 692.5625 -14.0625 692.5625 C-14.0625 693.2225 -14.0625 693.8825 -14.0625 694.5625 C-16.7025 693.9025 -19.3425 693.2425 -22.0625 692.5625 C-22.3925 693.5525 -22.7225 694.5425 -23.0625 695.5625 C-23.7225 695.2325 -24.3825 694.9025 -25.0625 694.5625 C-25.660625 694.748125 -26.25875 694.93375 -26.875 695.125 C-29.0625 695.5625 -29.0625 695.5625 -31.3125 694.625 C-35.0495053 693.18115704 -38.06991565 693.42715816 -42.0625 693.5625 C-42.0625 693.8925 -42.0625 694.2225 -42.0625 694.5625 C-43.9496875 694.5934375 -43.9496875 694.5934375 -45.875 694.625 C-46.58269531 694.63660156 -47.29039062 694.64820313 -48.01953125 694.66015625 C-50.0625 694.5625 -50.0625 694.5625 -53.0625 693.5625 C-54.0525 693.8925 -55.0425 694.2225 -56.0625 694.5625 C-56.0625 693.9025 -56.0625 693.2425 -56.0625 692.5625 C-58.0425 692.5625 -60.0225 692.5625 -62.0625 692.5625 C-62.0625 693.2225 -62.0625 693.8825 -62.0625 694.5625 C-64.0425 693.9025 -66.0225 693.2425 -68.0625 692.5625 C-68.3925 693.2225 -68.7225 693.8825 -69.0625 694.5625 C-69.3925 694.2325 -69.7225 693.9025 -70.0625 693.5625 C-71.0525 693.8925 -72.0425 694.2225 -73.0625 694.5625 C-75.75 693.625 -75.75 693.625 -78.0625 692.5625 C-78.0625 693.2225 -78.0625 693.8825 -78.0625 694.5625 C-83.39583333 693.89583333 -88.72916667 693.22916667 -94.0625 692.5625 C-94.0625 693.2225 -94.0625 693.8825 -94.0625 694.5625 C-95.0525 694.2325 -96.0425 693.9025 -97.0625 693.5625 C-99.05218251 693.34573842 -101.04685019 693.17340121 -103.04296875 693.02734375 C-104.20634766 692.94033203 -105.36972656 692.85332031 -106.56835938 692.76367188 C-107.78330078 692.67666016 -108.99824219 692.58964844 -110.25 692.5 C-111.47654297 692.40912109 -112.70308594 692.31824219 -113.96679688 692.22460938 C-116.99846295 692.00047842 -120.03034637 691.7799188 -123.0625 691.5625 C-123.0625 690.9025 -123.0625 690.2425 -123.0625 689.5625 C-124.3 689.376875 -125.5375 689.19125 -126.8125 689 C-136.04982694 686.9456418 -144.37094434 681.10197485 -151.0625 674.5625 C-151.0625 673.9025 -151.0625 673.2425 -151.0625 672.5625 C-152.0525 672.2325 -153.0425 671.9025 -154.0625 671.5625 C-155.65419307 669.52668283 -157.0572205 667.54760857 -158.4375 665.375 C-158.83453125 664.75294678 -159.2315625 664.13089355 -159.640625 663.48999023 C-166.89359369 651.69947189 -169.15046576 639.64306476 -169.37451172 625.96240234 C-169.39500202 624.86641346 -169.41549232 623.77042458 -169.43660355 622.64122391 C-169.50361004 618.85204147 -169.56137861 615.06280097 -169.6171875 611.2734375 C-169.63833132 609.89728159 -169.6594788 608.52112574 -169.68062973 607.14496994 C-170.3997486 559.27921297 -170.21335569 511.40172647 -170.19196185 463.53193828 C-170.18742643 453.17981706 -170.18832249 442.827707 -170.19287109 432.47558594 C-170.19821681 420.30438956 -170.20022271 408.13320183 -170.19725883 395.96200407 C-170.19570457 389.56946061 -170.19548068 383.17692483 -170.19879532 376.78438187 C-170.20167036 370.83287847 -170.19970534 364.88139647 -170.19390106 358.9298954 C-170.19257519 356.74769819 -170.19296468 354.56549919 -170.19516373 352.38330269 C-170.19787973 349.41661276 -170.19448957 346.44999234 -170.18948364 343.48330688 C-170.19171436 342.61422845 -170.19394509 341.74515001 -170.19624341 340.84973586 C-170.18521166 337.50159709 -170.12874185 334.76122554 -169.0625 331.5625 C-169.7225 331.5625 -170.3825 331.5625 -171.0625 331.5625 C-170.89878906 330.480896 -170.73507812 329.39929199 -170.56640625 328.28491211 C-169.89180646 322.85651055 -169.95653327 317.4661811 -170 312.00390625 C-170.00378662 310.90134995 -170.00757324 309.79879364 -170.01147461 308.66282654 C-170.02766692 303.98260766 -170.055606 299.30247909 -170.08300781 294.62231445 C-170.27618509 258.47528741 -170.27618509 258.47528741 -167.3125 247.8125 C-165.88424718 238.91652531 -170.92185613 232.30818561 -175.16015625 224.86328125 C-184.09784442 209.02401394 -188.46805442 188.654322 -189.0625 170.5625 C-189.10246094 169.39203125 -189.14242187 168.2215625 -189.18359375 167.015625 C-189.66057888 138.62098077 -184.1841828 107.59159246 -165.88671875 84.859375 C-163.88930495 82.61355726 -163.88930495 82.61355726 -163.0625 79.5625 C-161.96007847 78.40002438 -160.84703145 77.24627782 -159.69042969 76.13769531 C-157.72713669 74.23800029 -155.84003354 72.27277459 -153.9453125 70.3046875 C-141.09047742 57.09465659 -127.9740585 46.76139036 -112.34326172 37.08789062 C-110.55031776 35.96326768 -108.80126091 34.76920433 -107.0625 33.5625 C-107.0625 32.9025 -107.0625 32.2425 -107.0625 31.5625 C-106.24523437 31.48 -105.42796875 31.3975 -104.5859375 31.3125 C-100.19725828 30.37832438 -96.67116734 28.57598175 -92.6875 26.5625 C-65.00261601 13.06920979 -31.14310163 0.41415434 0 0 Z M108.9375 692.5625 C108.9375 692.8925 108.9375 693.2225 108.9375 693.5625 C110.5875 693.5625 112.2375 693.5625 113.9375 693.5625 C113.9375 693.2325 113.9375 692.9025 113.9375 692.5625 C112.2875 692.5625 110.6375 692.5625 108.9375 692.5625 Z M232.9375 692.5625 C236.9375 693.5625 236.9375 693.5625 236.9375 693.5625 Z " fill="#BCDB98" transform="translate(435.0625,160.4375)"/>
<path d="M0 0 C1.06130127 -0.02211548 1.06130127 -0.02211548 2.14404297 -0.04467773 C7.53657919 0.06437452 10.64443423 1.49826548 14.9375 4.5625 C27.4301104 20.5396195 25.97426103 49.62591296 25.94599915 68.79716492 C25.94477208 69.87703517 25.94354502 70.95690542 25.94228077 72.06949902 C25.94070312 72.89218934 25.93912546 73.71487967 25.9375 74.5625 C27.21725991 74.55789104 28.49701982 74.55328207 29.81556034 74.54853344 C60.24343198 74.44007645 90.67125116 74.35771375 121.0992699 74.30717335 C124.85027858 74.30092036 128.60128685 74.29444869 132.35229492 74.2878418 C133.09900457 74.28653024 133.84571422 74.28521869 134.61505144 74.2838674 C146.68121978 74.26215328 158.74726813 74.222754 170.81336547 74.17673602 C183.20853643 74.1298598 195.60364487 74.1021811 207.99890083 74.09205753 C215.63798468 74.08522139 223.27672931 74.0636872 230.91570865 74.02291767 C236.78854452 73.99318441 242.66120943 73.99025387 248.53412247 73.99696159 C250.93216595 73.99559298 253.33022301 73.9857403 255.72818947 73.96647263 C272.54856616 73.83802008 287.27144017 74.58784392 300.9375 85.5625 C301.68386719 86.12453125 302.43023438 86.6865625 303.19921875 87.265625 C313.97627827 95.97509925 320.55230416 109.02461529 322.9375 122.5625 C323.07935595 124.45871765 323.1806546 126.35822302 323.25047302 128.25845718 C323.29194741 129.37082111 323.3334218 130.48318504 323.37615299 131.62925696 C323.41500834 132.82218871 323.4538637 134.01512046 323.49389648 135.24420166 C323.55716834 137.11621415 323.55716834 137.11621415 323.62171841 139.02604508 C324.01636093 151.57083765 324.06466114 164.1055072 324.03515625 176.65527344 C324.03322962 179.11929799 324.03176936 181.58332294 324.0307312 184.04734802 C324.02760873 189.28577071 324.02152009 194.52418039 324.01266479 199.76259613 C323.99994281 207.34456085 323.99399656 214.92652039 323.98973143 222.50849405 C323.98271597 234.83037397 323.97195156 247.15224714 323.95800781 259.47412109 C323.95718 260.20683288 323.95635219 260.93954466 323.95549929 261.69445983 C323.94959351 266.90047333 323.94355405 272.10648667 323.9375 277.3125 C323.93055594 283.29443347 323.92369506 289.27636703 323.91699219 295.25830078 C323.91616406 295.99615719 323.91533593 296.73401359 323.91448271 297.49422929 C323.90079117 309.80324751 323.89103867 322.11226586 323.88408184 334.42128968 C323.87961447 341.98687665 323.87160345 349.55244392 323.85893703 357.1180217 C323.84950613 362.89971085 323.84516528 368.68139499 323.8426857 374.4630909 C323.84081417 376.83021561 323.83721419 379.19733969 323.83175278 381.56445885 C323.82453034 384.7963046 323.82349925 388.02809626 323.82397461 391.25994873 C323.82037965 392.19417467 323.81678469 393.12840061 323.81308079 394.09093642 C323.81937248 398.08744924 323.92880725 401.96326065 324.47149563 405.92571545 C324.85517282 408.92000344 324.94747776 411.11606578 324.50709534 414.05360413 C323.65584176 421.25166866 323.80611282 428.46875797 323.82397461 435.70483398 C323.82425715 437.31718443 323.82409744 438.929535 323.8235321 440.54188538 C323.82324667 444.89260698 323.82910281 449.24330068 323.83610606 453.59401584 C323.84238511 458.15431496 323.84294709 462.71461482 323.84413147 467.2749176 C323.84723258 475.90188799 323.85542841 484.52884563 323.86548096 493.15581042 C323.87666871 502.9699743 323.88216113 512.78413881 323.88717639 522.59830749 C323.89718474 541.95222521 323.91364737 561.3061322 323.93470669 580.66004086 C323.93660019 582.62752655 323.9375 584.5950134 323.9375 586.5625 C323.95199863 587.99366688 323.9680513 589.42481834 323.98510742 590.85595703 C324.0397269 595.74001226 324.07399888 600.62402733 324.10229492 605.50830078 C324.11725297 607.60274881 324.13762678 609.69716623 324.16381836 611.79150391 C324.56774254 645.00832762 324.56774254 645.00832762 317.0625 658.125 C316.70953857 658.78137451 316.35657715 659.43774902 315.99291992 660.11401367 C314.99820271 661.94483042 313.97274729 663.75440263 312.9375 665.5625 C312.45667969 666.44421875 311.97585938 667.3259375 311.48046875 668.234375 C309.16559348 672.2615231 307.05250139 674.44939118 302.9375 676.5625 C302.2775 677.5525 301.6175 678.5425 300.9375 679.5625 C298.8732174 680.9824232 296.8562912 682.26177903 294.6875 683.5 C293.7601001 684.03004639 293.7601001 684.03004639 292.81396484 684.57080078 C286.49281422 688.03424791 279.94121693 689.92481495 272.9375 691.5625 C266.7248887 692.9730889 266.7248887 692.9730889 260.9375 695.5625 C260.6075 694.5725 260.2775 693.5825 259.9375 692.5625 C259.2775 692.5625 258.6175 692.5625 257.9375 692.5625 C257.9375 693.2225 257.9375 693.8825 257.9375 694.5625 C251.54117893 695.8166806 251.54117893 695.8166806 248.5625 694.5625 C245.16128493 693.26679902 242.70996034 693.76782276 239.16015625 694.265625 C236.39640751 694.63477246 233.72079936 694.70166497 230.9375 694.5625 C230.6075 694.2325 230.2775 693.9025 229.9375 693.5625 C229.2775 693.8925 228.6175 694.2225 227.9375 694.5625 C227.6075 694.2325 227.2775 693.9025 226.9375 693.5625 C224.88353274 693.97179986 224.88353274 693.97179986 222.9375 694.5625 C222.9375 694.2325 222.9375 693.9025 222.9375 693.5625 C219.89363276 693.48023332 217.86574652 693.58641783 214.9375 694.5625 C214.9375 693.9025 214.9375 693.2425 214.9375 692.5625 C214.2775 692.5625 213.6175 692.5625 212.9375 692.5625 C212.6075 693.2225 212.2775 693.8825 211.9375 694.5625 C208.9675 693.9025 205.9975 693.2425 202.9375 692.5625 C202.9375 693.2225 202.9375 693.8825 202.9375 694.5625 C201.9475 694.5625 200.9575 694.5625 199.9375 694.5625 C199.9375 693.9025 199.9375 693.2425 199.9375 692.5625 C199.38320313 692.706875 198.82890625 692.85125 198.2578125 693 C197.53335937 693.185625 196.80890625 693.37125 196.0625 693.5625 C195.34320312 693.748125 194.62390625 693.93375 193.8828125 694.125 C191.9375 694.5625 191.9375 694.5625 189.9375 694.5625 C189.36 694.76875 188.7825 694.975 188.1875 695.1875 C185.05118652 695.71021891 182.8790594 694.64959804 179.9375 693.5625 C179.2775 693.5625 178.6175 693.5625 177.9375 693.5625 C177.6075 694.2225 177.2775 694.8825 176.9375 695.5625 C175.9475 694.9025 174.9575 694.2425 173.9375 693.5625 C172.9475 693.5625 171.9575 693.5625 170.9375 693.5625 C170.133125 693.541875 169.32875 693.52125 168.5 693.5 C166.00259135 693.45527769 166.00259135 693.45527769 163.9375 694.125 C161.9375 694.5625 161.9375 694.5625 159.6640625 694.09375 C156.80407274 693.53650271 154.22243311 693.46392645 151.3125 693.5 C149.90097656 693.51353516 149.90097656 693.51353516 148.4609375 693.52734375 C147.62820313 693.53894531 146.79546875 693.55054688 145.9375 693.5625 C140.9375 693.5625 135.9375 693.5625 130.9375 693.5625 C130.6075 694.2225 130.2775 694.8825 129.9375 695.5625 C128.6175 695.5625 127.2975 695.5625 125.9375 695.5625 C125.6075 694.5725 125.2775 693.5825 124.9375 692.5625 C124.215625 692.913125 123.49375 693.26375 122.75 693.625 C119.60708839 694.6726372 118.08681004 694.34982751 114.9375 693.5625 C114.6075 693.8925 114.2775 694.2225 113.9375 694.5625 C110.27405389 694.69818319 107.43134279 694.72711426 103.9375 693.5625 C101.29945411 693.95647335 101.29945411 693.95647335 98.9375 694.5625 C98.6075 693.9025 98.2775 693.2425 97.9375 692.5625 C97.6075 693.5525 97.2775 694.5425 96.9375 695.5625 C93.9675 695.2325 90.9975 694.9025 87.9375 694.5625 C87.9375 694.2325 87.9375 693.9025 87.9375 693.5625 C87.26203125 693.57410156 86.5865625 693.58570313 85.890625 693.59765625 C84.55257812 693.61119141 84.55257812 693.61119141 83.1875 693.625 C82.30578125 693.63660156 81.4240625 693.64820313 80.515625 693.66015625 C78.1556162 693.57076198 76.19251476 693.23162821 73.9375 692.5625 C73.9375 693.2225 73.9375 693.8825 73.9375 694.5625 C73.195 694.376875 72.4525 694.19125 71.6875 694 C68.91430122 693.55880929 67.58442332 693.87942301 64.9375 694.5625 C62.49256838 694.11796698 60.30207675 693.35069225 57.9375 692.5625 C57.6075 693.5525 57.2775 694.5425 56.9375 695.5625 C56.6075 694.5725 56.2775 693.5825 55.9375 692.5625 C53.9575 693.5525 51.9775 694.5425 49.9375 695.5625 C48.9475 694.9025 47.9575 694.2425 46.9375 693.5625 C45.9475 694.2225 44.9575 694.8825 43.9375 695.5625 C43.2775 695.2325 42.6175 694.9025 41.9375 694.5625 C36.51803299 693.6374465 36.51803299 693.6374465 31.125 694.125 C30.403125 694.269375 29.68125 694.41375 28.9375 694.5625 C27.9475 693.9025 26.9575 693.2425 25.9375 692.5625 C25.9375 693.2225 25.9375 693.8825 25.9375 694.5625 C23.9575 694.2325 21.9775 693.9025 19.9375 693.5625 C19.9375 693.8925 19.9375 694.2225 19.9375 694.5625 C18.27138095 694.605221 16.60367115 694.60313832 14.9375 694.5625 C14.6075 694.2325 14.2775 693.9025 13.9375 693.5625 C12.42280552 693.33057135 10.89995438 693.15034762 9.375 693 C8.54871094 692.91621094 7.72242188 692.83242188 6.87109375 692.74609375 C6.23300781 692.68550781 5.59492188 692.62492188 4.9375 692.5625 C4.9375 693.2225 4.9375 693.8825 4.9375 694.5625 C-0.39583333 694.5625 -5.72916667 694.5625 -11.0625 694.5625 C-11.0625 693.9025 -11.0625 693.2425 -11.0625 692.5625 C-12.0525 692.5625 -13.0425 692.5625 -14.0625 692.5625 C-14.0625 693.2225 -14.0625 693.8825 -14.0625 694.5625 C-16.7025 693.9025 -19.3425 693.2425 -22.0625 692.5625 C-22.3925 693.5525 -22.7225 694.5425 -23.0625 695.5625 C-23.7225 695.2325 -24.3825 694.9025 -25.0625 694.5625 C-25.660625 694.748125 -26.25875 694.93375 -26.875 695.125 C-29.0625 695.5625 -29.0625 695.5625 -31.3125 694.625 C-35.0495053 693.18115704 -38.06991565 693.42715816 -42.0625 693.5625 C-42.0625 693.8925 -42.0625 694.2225 -42.0625 694.5625 C-43.9496875 694.5934375 -43.9496875 694.5934375 -45.875 694.625 C-46.58269531 694.63660156 -47.29039062 694.64820313 -48.01953125 694.66015625 C-50.0625 694.5625 -50.0625 694.5625 -53.0625 693.5625 C-54.0525 693.8925 -55.0425 694.2225 -56.0625 694.5625 C-56.0625 693.9025 -56.0625 693.2425 -56.0625 692.5625 C-58.0425 692.5625 -60.0225 692.5625 -62.0625 692.5625 C-62.0625 693.2225 -62.0625 693.8825 -62.0625 694.5625 C-64.0425 693.9025 -66.0225 693.2425 -68.0625 692.5625 C-68.3925 693.2225 -68.7225 693.8825 -69.0625 694.5625 C-69.3925 694.2325 -69.7225 693.9025 -70.0625 693.5625 C-71.0525 693.8925 -72.0425 694.2225 -73.0625 694.5625 C-75.75 693.625 -75.75 693.625 -78.0625 692.5625 C-78.0625 693.2225 -78.0625 693.8825 -78.0625 694.5625 C-83.39583333 693.89583333 -88.72916667 693.22916667 -94.0625 692.5625 C-94.0625 693.2225 -94.0625 693.8825 -94.0625 694.5625 C-95.0525 694.2325 -96.0425 693.9025 -97.0625 693.5625 C-99.05218251 693.34573842 -101.04685019 693.17340121 -103.04296875 693.02734375 C-104.20634766 692.94033203 -105.36972656 692.85332031 -106.56835938 692.76367188 C-107.78330078 692.67666016 -108.99824219 692.58964844 -110.25 692.5 C-111.47654297 692.40912109 -112.70308594 692.31824219 -113.96679688 692.22460938 C-116.99846295 692.00047842 -120.03034637 691.7799188 -123.0625 691.5625 C-123.0625 690.9025 -123.0625 690.2425 -123.0625 689.5625 C-124.3 689.376875 -125.5375 689.19125 -126.8125 689 C-136.04982694 686.9456418 -144.37094434 681.10197485 -151.0625 674.5625 C-151.0625 673.9025 -151.0625 673.2425 -151.0625 672.5625 C-152.0525 672.2325 -153.0425 671.9025 -154.0625 671.5625 C-155.65419307 669.52668283 -157.0572205 667.54760857 -158.4375 665.375 C-158.83453125 664.75294678 -159.2315625 664.13089355 -159.640625 663.48999023 C-166.89359369 651.69947189 -169.15046576 639.64306476 -169.37451172 625.96240234 C-169.39500202 624.86641346 -169.41549232 623.77042458 -169.43660355 622.64122391 C-169.50361004 618.85204147 -169.56137861 615.06280097 -169.6171875 611.2734375 C-169.63833132 609.89728159 -169.6594788 608.52112574 -169.68062973 607.14496994 C-170.3997486 559.27921297 -170.21335569 511.40172647 -170.19196185 463.53193828 C-170.18742643 453.17981706 -170.18832249 442.827707 -170.19287109 432.47558594 C-170.19821681 420.30438956 -170.20022271 408.13320183 -170.19725883 395.96200407 C-170.19570457 389.56946061 -170.19548068 383.17692483 -170.19879532 376.78438187 C-170.20167036 370.83287847 -170.19970534 364.88139647 -170.19390106 358.9298954 C-170.19257519 356.74769819 -170.19296468 354.56549919 -170.19516373 352.38330269 C-170.19787973 349.41661276 -170.19448957 346.44999234 -170.18948364 343.48330688 C-170.19171436 342.61422845 -170.19394509 341.74515001 -170.19624341 340.84973586 C-170.18521166 337.50159709 -170.12874185 334.76122554 -169.0625 331.5625 C-169.7225 331.5625 -170.3825 331.5625 -171.0625 331.5625 C-170.89878906 330.480896 -170.73507812 329.39929199 -170.56640625 328.28491211 C-169.89180646 322.85651055 -169.95653327 317.4661811 -170 312.00390625 C-170.00378662 310.90134995 -170.00757324 309.79879364 -170.01147461 308.66282654 C-170.02766692 303.98260766 -170.055606 299.30247909 -170.08300781 294.62231445 C-170.27618509 258.47528741 -170.27618509 258.47528741 -167.3125 247.8125 C-165.88424718 238.91652531 -170.92185613 232.30818561 -175.16015625 224.86328125 C-184.09784442 209.02401394 -188.46805442 188.654322 -189.0625 170.5625 C-189.10246094 169.39203125 -189.14242187 168.2215625 -189.18359375 167.015625 C-189.66057888 138.62098077 -184.1841828 107.59159246 -165.88671875 84.859375 C-163.88930495 82.61355726 -163.88930495 82.61355726 -163.0625 79.5625 C-161.96007847 78.40002438 -160.84703145 77.24627782 -159.69042969 76.13769531 C-157.72713669 74.23800029 -155.84003354 72.27277459 -153.9453125 70.3046875 C-141.09047742 57.09465659 -127.9740585 46.76139036 -112.34326172 37.08789062 C-110.55031776 35.96326768 -108.80126091 34.76920433 -107.0625 33.5625 C-107.0625 32.9025 -107.0625 32.2425 -107.0625 31.5625 C-106.24523437 31.48 -105.42796875 31.3975 -104.5859375 31.3125 C-100.19725828 30.37832438 -96.67116734 28.57598175 -92.6875 26.5625 C-65.00261601 13.06920979 -31.14310163 0.41415434 0 0 Z M23.9375 101.5625 C23.73589264 102.72062195 23.53428528 103.8787439 23.3265686 105.07196045 C23.05713032 106.61146113 22.7876261 108.15095026 22.51806641 109.69042969 C22.3196389 110.83183914 22.3196389 110.83183914 22.11720276 111.99630737 C14.99212762 152.60827853 -4.70355304 191.8476666 -39.10058594 215.99316406 C-43.38051088 218.89523811 -47.73723235 221.66222965 -52.140625 224.37255859 C-53.76435104 225.37789913 -55.36889817 226.41411708 -56.96875 227.45703125 C-83.01085514 243.80994139 -113.19646071 248.89593136 -143.0625 253.5625 C-143.0625 372.0325 -143.0625 490.5025 -143.0625 612.5625 C-141.7425 610.9125 -140.4225 609.2625 -139.0625 607.5625 C-129.43939565 596.63202513 -116.54691909 588.95594169 -102.0625 586.5625 C-99.92736265 586.4728193 -97.78972776 586.43593818 -95.65270805 586.43500805 C-94.35022995 586.4320004 -93.04775184 586.42899275 -91.70580471 586.42589396 C-90.26211149 586.42758145 -88.81841837 586.42935251 -87.37472534 586.43119812 C-85.83969861 586.42949571 -84.30467231 586.4273459 -82.76964676 586.42478687 C-79.4309209 586.42019068 -76.09221357 586.41876884 -72.75348473 586.41975212 C-67.32099555 586.42134505 -61.88852476 586.41614237 -56.45603943 586.41012573 C-48.56802247 586.40201226 -40.68000874 586.3970687 -32.79198837 586.39383507 C-20.32112009 586.38833731 -7.85027915 586.37143838 4.62057495 586.35249329 C8.88759799 586.34613648 13.1546211 586.33982805 17.42164421 586.33351612 C18.48804869 586.33193236 19.55445318 586.3303486 20.65317295 586.32871684 C32.79319406 586.31077902 44.93321711 586.29455349 57.07324219 586.27954102 C58.18302858 586.27816514 59.29281496 586.27678927 60.43623124 586.27537171 C78.41512416 586.25344799 96.39401005 586.24268697 114.37291397 586.23517027 C132.83416955 586.22709617 151.29536482 586.20379603 169.75658596 586.1672166 C181.14168718 586.14520328 192.52666434 586.1355234 203.91178577 586.14171693 C211.7171977 586.14489418 219.52250378 586.13354385 227.32788296 586.11082252 C231.82949837 586.0981691 236.33087791 586.09196752 240.83250237 586.10323906 C244.95825826 586.11343652 249.08355706 586.10509877 253.20925914 586.0823761 C254.69717548 586.07739804 256.18513316 586.07907858 257.6730292 586.08830877 C269.54993345 586.15616048 279.4588025 584.83496999 288.28515625 576.3515625 C294.44412052 569.68299126 296.24863974 562.81932123 296.19476891 553.88868999 C296.20002802 552.77180707 296.20002802 552.77180707 296.20539337 551.63236085 C296.21468508 549.14144405 296.20978986 546.6507622 296.20492554 544.15983582 C296.20866291 542.35425686 296.21326479 540.54867953 296.21865618 538.74310476 C296.23089066 533.78431845 296.23062518 528.82559958 296.22826743 523.86680162 C296.22785938 518.51766124 296.23889725 513.16854252 296.24838257 507.81941223 C296.26499574 497.34071438 296.27049225 486.86203903 296.27160732 476.38332912 C296.2725576 467.86622466 296.27666686 459.34912763 296.28300858 450.83202553 C296.30062144 426.68619799 296.30984731 402.54038823 296.30834763 378.39455422 C296.30826772 377.09283521 296.3081878 375.79111621 296.30810547 374.44995117 C296.30798283 372.49498969 296.30798283 372.49498969 296.30785771 370.50053404 C296.30704468 349.37509562 296.32618654 328.24972849 296.3543822 307.12431069 C296.38310272 285.43457769 296.39692297 263.74487947 296.39519465 242.05512697 C296.39453049 229.87727334 296.40003441 217.69949445 296.42155075 205.52165794 C296.43975151 195.15392305 296.44411888 184.78629678 296.4305319 174.41855284 C296.42399688 169.1292183 296.42390455 163.84009221 296.4412384 158.55077744 C296.45695014 153.70661533 296.45412477 148.86282729 296.43667014 144.01867441 C296.43359609 142.26837917 296.43724786 140.51805615 296.44839029 138.76779368 C296.50986906 128.42371605 296.51922692 118.96658816 289.5 110.6875 C288.654375 109.98625 287.80875 109.285 286.9375 108.5625 C286.174375 107.86125 285.41125 107.16 284.625 106.4375 C277.83913496 101.70317555 271.50591288 101.12790793 263.48449707 101.20173645 C262.45677358 101.19917318 261.42905009 101.1966099 260.37018347 101.19396895 C256.93998676 101.18904301 253.51023402 101.20550474 250.08007812 101.22192383 C247.61587535 101.22277036 245.15167182 101.22229446 242.68746948 101.22059631 C237.38914829 101.21991402 232.09096426 101.22840143 226.79267883 101.24530983 C219.13236808 101.26974018 211.47211086 101.27750921 203.81176537 101.2812738 C191.38196677 101.28783197 178.9522274 101.30777588 166.52246094 101.33618164 C154.4515004 101.36373866 142.38055598 101.38496419 130.30957031 101.39770508 C129.56492321 101.39849325 128.8202761 101.39928142 128.05306393 101.40009347 C124.31721129 101.40400872 120.58135854 101.40779981 116.84550571 101.41152918 C85.87612742 101.44260533 54.90682272 101.49564755 23.9375 101.5625 Z M108.9375 692.5625 C108.9375 692.8925 108.9375 693.2225 108.9375 693.5625 C110.5875 693.5625 112.2375 693.5625 113.9375 693.5625 C113.9375 693.2325 113.9375 692.9025 113.9375 692.5625 C112.2875 692.5625 110.6375 692.5625 108.9375 692.5625 Z M232.9375 692.5625 C236.9375 693.5625 236.9375 693.5625 236.9375 693.5625 Z " fill="#097657" transform="translate(435.0625,160.4375)"/>
<path d="M0 0 C0.94746094 0.42410156 1.89492188 0.84820312 2.87109375 1.28515625 C19.6664283 9.64788178 28.71881357 23.93993087 35 41 C37.63818373 49.13634538 37.20299349 57.5419381 37 66 C37.64839844 65.7834375 38.29679688 65.566875 38.96484375 65.34375 C55.9760381 60.51534267 76.11983258 60.49022151 91.86181641 69.00732422 C106.91663319 77.55007539 117.37005124 89.44873246 122.68359375 106.1484375 C126.72476471 122.4803422 124.27210353 139.39989381 116.01171875 153.89453125 C105.5278428 170.07837859 90.2511849 179.12354852 72 184 C72.43570313 184.49886719 72.87140625 184.99773437 73.3203125 185.51171875 C84.6126754 199.12610433 89.55077887 215.43612247 88 233 C85.45494975 249.88658931 77.79656219 262.90295923 64.625 273.8125 C51.66647631 283.34082624 36.18400844 286.47002711 20.40625 284.56640625 C3.0430812 281.67852384 -11.4721636 272.87771498 -21.85546875 258.65234375 C-22.23316406 258.10707031 -22.61085938 257.56179688 -23 257 C-23.639375 257.639375 -24.27875 258.27875 -24.9375 258.9375 C-25.39769531 259.39253906 -25.85789062 259.84757812 -26.33203125 260.31640625 C-27.5583202 261.55418269 -28.76078796 262.81567447 -29.94921875 264.08984375 C-42.74157502 277.52526282 -58.75772201 284.67504809 -77.25 285.375 C-92.14109518 285.07506088 -107.27507705 279.29169933 -118.1640625 269 C-131.5531363 254.41445578 -135.75132268 239.30787321 -135.30859375 219.984375 C-134.67725526 206.18399666 -128.69615995 194.54600099 -120 184 C-120.88300781 183.70867187 -121.76601563 183.41734375 -122.67578125 183.1171875 C-141.11090444 176.82033554 -156.60310118 167.07068689 -165.4609375 149.0234375 C-172.40019468 133.17946878 -173.66425198 115.91800677 -167.53515625 99.58203125 C-161.00214768 84.33834459 -149.24414787 72.53125834 -134 66 C-126.42693587 63.02946601 -119.3352765 62.49144147 -111.25 62.5625 C-109.53997803 62.56733398 -109.53997803 62.56733398 -107.79541016 62.57226562 C-99.29858724 62.71264897 -91.92725417 63.77144557 -84 67 C-84.03480469 65.99582031 -84.06960938 64.99164063 -84.10546875 63.95703125 C-84.53835223 46.36464669 -80.39624423 29.9917119 -68.5625 16.5 C-67.06358198 14.97810027 -65.54329093 13.47688426 -64 12 C-63.30261719 11.28328125 -62.60523438 10.5665625 -61.88671875 9.828125 C-56.05249713 4.15389118 -49.52767363 0.9657334 -42 -2 C-40.66195312 -2.56460937 -40.66195312 -2.56460937 -39.296875 -3.140625 C-26.97829377 -6.35162959 -11.57339783 -5.22512054 0 0 Z " fill="#FBCF47" transform="translate(536,411)"/>
<path d="M0 0 C0.94746094 0.42410156 1.89492188 0.84820312 2.87109375 1.28515625 C19.6664283 9.64788178 28.71881357 23.93993087 35 41 C37.63818373 49.13634538 37.20299349 57.5419381 37 66 C37.64839844 65.7834375 38.29679688 65.566875 38.96484375 65.34375 C55.9760381 60.51534267 76.11983258 60.49022151 91.86181641 69.00732422 C106.91663319 77.55007539 117.37005124 89.44873246 122.68359375 106.1484375 C126.72476471 122.4803422 124.27210353 139.39989381 116.01171875 153.89453125 C105.5278428 170.07837859 90.2511849 179.12354852 72 184 C72.43570313 184.49886719 72.87140625 184.99773437 73.3203125 185.51171875 C84.6126754 199.12610433 89.55077887 215.43612247 88 233 C85.45494975 249.88658931 77.79656219 262.90295923 64.625 273.8125 C51.66647631 283.34082624 36.18400844 286.47002711 20.40625 284.56640625 C3.0430812 281.67852384 -11.4721636 272.87771498 -21.85546875 258.65234375 C-22.23316406 258.10707031 -22.61085938 257.56179688 -23 257 C-23.639375 257.639375 -24.27875 258.27875 -24.9375 258.9375 C-25.39769531 259.39253906 -25.85789062 259.84757812 -26.33203125 260.31640625 C-27.5583202 261.55418269 -28.76078796 262.81567447 -29.94921875 264.08984375 C-42.74157502 277.52526282 -58.75772201 284.67504809 -77.25 285.375 C-92.14109518 285.07506088 -107.27507705 279.29169933 -118.1640625 269 C-131.5531363 254.41445578 -135.75132268 239.30787321 -135.30859375 219.984375 C-134.67725526 206.18399666 -128.69615995 194.54600099 -120 184 C-120.88300781 183.70867187 -121.76601563 183.41734375 -122.67578125 183.1171875 C-141.11090444 176.82033554 -156.60310118 167.07068689 -165.4609375 149.0234375 C-172.40019468 133.17946878 -173.66425198 115.91800677 -167.53515625 99.58203125 C-161.00214768 84.33834459 -149.24414787 72.53125834 -134 66 C-126.42693587 63.02946601 -119.3352765 62.49144147 -111.25 62.5625 C-109.53997803 62.56733398 -109.53997803 62.56733398 -107.79541016 62.57226562 C-99.29858724 62.71264897 -91.92725417 63.77144557 -84 67 C-84.03480469 65.99582031 -84.06960938 64.99164063 -84.10546875 63.95703125 C-84.53835223 46.36464669 -80.39624423 29.9917119 -68.5625 16.5 C-67.06358198 14.97810027 -65.54329093 13.47688426 -64 12 C-63.30261719 11.28328125 -62.60523438 10.5665625 -61.88671875 9.828125 C-56.05249713 4.15389118 -49.52767363 0.9657334 -42 -2 C-40.66195312 -2.56460937 -40.66195312 -2.56460937 -39.296875 -3.140625 C-26.97829377 -6.35162959 -11.57339783 -5.22512054 0 0 Z M-49 33 C-57.96658088 45.07039734 -59.78666154 58.50187716 -57.69238281 73.15185547 C-57.10986366 76.38170248 -56.39807764 79.57928252 -55.6796875 82.78125 C-54.60272111 87.88136667 -54.11953942 91.97494067 -56.25 96.875 C-58.48656111 99.59082421 -60.53488922 100.73314501 -64.0012207 101.36450195 C-70.72375392 101.55954944 -75.34227499 99.30275582 -81.1875 96.1875 C-93.86662331 89.82961431 -105.63184808 86.05353567 -120 89 C-129.66106016 92.35132469 -137.64933532 98.0826242 -142.4375 107.25 C-146.13725693 115.27996572 -146.37380204 124.97792698 -144.05859375 133.44140625 C-139.65709284 144.46585523 -132.7000618 151.4400736 -121.94140625 156.4140625 C-114.07326321 159.43528115 -106.14586002 161.14222951 -97.84033203 162.48120117 C-92.87556475 163.34367854 -89.66240195 164.27957981 -86 168 C-84.18389258 171.63221483 -84.20879053 175.1190309 -85 179 C-87.77070784 183.9512909 -91.46215683 188.17059549 -95.1015625 192.5 C-104.05626467 203.28713157 -109.57328864 214.45566207 -109.3125 228.65234375 C-108.51903451 237.15234285 -105.02436378 244.92244096 -99 251 C-90.01011921 258.24678003 -81.46752742 260.18335123 -70 259 C-57.67951901 255.59872977 -46.30363704 247.24002114 -39.88818359 236.06298828 C-38.43080949 233.28143743 -37.04934067 230.47502464 -35.73828125 227.62158203 C-31.3993326 218.1996663 -31.3993326 218.1996663 -27 216 C-23.18064414 215.63968341 -20.82293693 215.49980865 -17.5 217.51953125 C-14.3018217 220.69272379 -13.0100213 223.88581492 -11.3125 228 C-5.77031435 240.46891925 1.68454369 249.59895736 14 256 C14.64195312 256.35835937 15.28390625 256.71671875 15.9453125 257.0859375 C23.77720074 260.78150381 34.43683734 260.30636204 42.4375 257.4375 C52.16651462 252.7746721 57.08344223 245.94724362 61 236 C63.99993877 223.89049105 60.84252347 211.83599627 54.546875 201.24609375 C50.80541853 195.81342337 46.44652788 190.81274411 42.12109375 185.83984375 C38.76690067 181.77440008 37.02369948 178.44989276 36.765625 173.11328125 C37.16053819 169.5524807 38.60660134 167.58235118 41 165 C44.9565847 162.90987436 49.08308591 162.45599162 53.45092773 161.80932617 C66.46735758 159.83370731 80.5321814 156.35929809 89.609375 145.9921875 C96.81278824 135.67269101 98.9246407 127.53704008 98 115 C96.12655548 105.96189605 90.10699135 98.41800205 82.5078125 93.33203125 C77.24419797 90.53624846 71.90860311 88.75777579 66 88 C65.26652344 87.90460938 64.53304687 87.80921875 63.77734375 87.7109375 C52.38423084 86.98816907 41.39107199 92.09629662 31.5625 97.3125 C25.74274804 100.37626365 21.60938236 102.2792353 15 101 C9.53658537 98.07317073 9.53658537 98.07317073 8 95 C7.61673753 89.34687855 8.24338439 84.58686675 9.5 79.0625 C12.76023955 63.63069948 12.38255758 48.90517655 3.7265625 35.32421875 C-0.95770568 29.01847313 -7.25356303 23.81573904 -15 22 C-28.65784689 20.40815199 -39.46892821 22.48364863 -49 33 Z " fill="#0B7356" transform="translate(536,411)"/>
<path d="M0 0 C0.09968046 5.22862331 0.17184747 10.45668044 0.21972656 15.68603516 C0.23970839 17.46087289 0.26690355 19.23564594 0.30175781 21.01025391 C0.55380626 34.18349196 0.24718003 44.31821967 -9.29296875 54.3203125 C-9.85628906 54.87460937 -10.41960937 55.42890625 -11 56 C-12.11375 57.11375 -12.11375 57.11375 -13.25 58.25 C-22.51952931 64.14879138 -32.02510675 64.57659116 -42.68850708 64.50793457 C-44.25901646 64.51255049 -45.82952151 64.51890804 -47.40001762 64.52684355 C-51.69050634 64.54346478 -55.98063689 64.53532358 -60.27112651 64.52289867 C-64.9078462 64.51382099 -69.54450577 64.52783125 -74.18121338 64.53881836 C-83.25402721 64.55657837 -92.32670848 64.55277507 -101.39952745 64.5411678 C-108.77381786 64.53212495 -116.14807119 64.53091316 -123.52236557 64.53526306 C-125.09818813 64.53618246 -125.09818813 64.53618246 -126.7058455 64.53712043 C-128.84015705 64.53839936 -130.9744686 64.53969621 -133.10878013 64.5410108 C-153.10811494 64.55240893 -173.10737633 64.53931433 -193.10669909 64.51780933 C-210.26176191 64.49993384 -227.41671647 64.50304768 -244.57177734 64.52148438 C-264.50388778 64.54289562 -284.43593394 64.55131586 -304.36805427 64.53903532 C-306.49379149 64.53776115 -308.61952872 64.53650366 -310.74526596 64.53526306 C-312.3140419 64.53433741 -312.3140419 64.53433741 -313.91451029 64.53339306 C-321.2797548 64.52994131 -328.64495849 64.53576461 -336.01019669 64.54518127 C-344.98606757 64.55640521 -353.96179856 64.55335264 -362.93765344 64.5320583 C-367.51602559 64.52155405 -372.09416457 64.5174155 -376.67253494 64.53065491 C-380.8657884 64.54259723 -385.0585931 64.53598612 -389.25180601 64.5147447 C-390.76642766 64.51028648 -392.28108744 64.51252737 -393.79568447 64.52224785 C-401.94898489 64.57055 -408.8381152 64.2775995 -416 60 C-416.928125 59.46375 -417.85625 58.9275 -418.8125 58.375 C-423.02242726 53.80422183 -425.14121979 47.80163565 -425.625 41.625 C-425.11391504 32.29357778 -419.11652163 24.08201851 -412.5078125 17.91015625 C-405.36367619 12.46859448 -397.59580582 9.87785724 -388.71325588 9.86971474 C-387.41276883 9.86609039 -386.11228177 9.86246604 -384.77238601 9.85873187 C-383.32575057 9.8597285 -381.87911518 9.86081063 -380.43247986 9.86196899 C-378.89831598 9.85955119 -377.36415275 9.856689 -375.82999045 9.85341966 C-371.60747425 9.8456591 -367.38497431 9.84404685 -363.16245186 9.84336853 C-358.61079864 9.84153008 -354.05915496 9.83392381 -349.50750732 9.82688904 C-341.61674557 9.81535769 -333.72598595 9.80711624 -325.83521843 9.80076981 C-313.36022914 9.79044648 -300.88526652 9.76988303 -288.41029358 9.74765015 C-284.14252767 9.74017016 -279.87476164 9.73275645 -275.60699558 9.72536278 C-274.00706063 9.72258693 -274.00706063 9.72258693 -272.37480376 9.719755 C-260.22977086 9.69882269 -248.08473501 9.67999757 -235.93969727 9.66210938 C-234.27416943 9.6596521 -234.27416943 9.6596521 -232.57499457 9.65714519 C-214.5895746 9.6308717 -196.60415257 9.61222223 -178.61872154 9.59551747 C-160.15298502 9.57808967 -141.68728874 9.54923605 -123.22158438 9.5106281 C-111.83273169 9.48724225 -100.44394462 9.4732348 -89.05506773 9.47130047 C-81.2463904 9.46918919 -73.43777828 9.45624397 -65.62913024 9.43482114 C-61.12553402 9.42280773 -56.62206726 9.4156304 -52.11845589 9.42153358 C-47.99087748 9.42684691 -43.86356263 9.41829236 -39.73602814 9.39897721 C-38.24740879 9.3944199 -36.7587635 9.39484702 -35.27014958 9.40092559 C-24.59638482 9.44060057 -14.51908997 8.84402514 -5.375 2.8125 C-1.03649635 0 -1.03649635 0 0 0 Z " fill="#3EA86E" transform="translate(731,763)"/>
<path d="M0 0 C7.57491128 46.97385139 5.47887586 99.24889054 -22.6875 139.4375 C-48.1422214 173.40939054 -86.5096521 193.26030343 -128 200 C-120.15459377 175.59823436 -108.85736136 152.88514526 -94 132 C-93.48743652 131.26716797 -92.97487305 130.53433594 -92.44677734 129.77929688 C-84.62869506 118.63500953 -76.25886415 108.43592091 -66.70605469 98.73681641 C-65.15374824 97.15652046 -63.62439558 95.55783773 -62.1015625 93.94921875 C-56.7232914 88.37379695 -51.07139942 83.4819252 -44.85717773 78.87768555 C-40.46080356 75.574224 -36.50127164 72.00254328 -34 67 C-33.74529577 62.50022536 -33.78642556 58.984434 -36 55 C-38.83552881 51.82420773 -42.3256 51.01145041 -46.44921875 50.6875 C-59.80680935 52.32395827 -73.43381232 68.98467425 -83 78 C-83.7321875 78.68964844 -84.464375 79.37929688 -85.21875 80.08984375 C-90.62781518 85.33792485 -95.3471201 91.08205929 -100 97 C-100.49161621 97.62052246 -100.98323242 98.24104492 -101.48974609 98.88037109 C-109.64066353 109.20151739 -117.14476742 119.77573795 -124 131 C-124.70890381 132.15048828 -124.70890381 132.15048828 -125.43212891 133.32421875 C-134.7473934 148.5769924 -141.9445568 164.61687618 -149 181 C-151.836792 178.163208 -152.43422865 174.76516281 -153.5 171 C-153.83209473 169.84359009 -153.83209473 169.84359009 -154.17089844 168.66381836 C-162.32137954 139.84345074 -160.78857216 109.18984833 -146.36010742 82.56469727 C-136.92941455 66.05286417 -123.17965891 53.17425618 -108 42 C-107.44280273 41.58782227 -106.88560547 41.17564453 -106.31152344 40.75097656 C-78.62619155 20.57628668 -35.13658901 -0.8849215 0 0 Z " fill="#7FB755" transform="translate(431,188)"/>
<path d="M0 0 C15.2454956 -0.68746267 28.04991406 4.79541854 39.5078125 14.4296875 C49.05582796 23.36315252 55.67177041 35.63100638 56.55859375 48.7734375 C56.85454171 64.59886528 52.77030055 78.7250127 41.6953125 90.4921875 C29.62010637 101.87945085 16.95931817 105.76979705 0.734375 105.66210938 C-12.43481578 105.27594513 -24.85316398 99.9702281 -34.5546875 90.9296875 C-46.50596856 77.90250035 -49.52665169 62.58709361 -48.85888672 45.55078125 C-48.45695973 40.37282265 -46.89095296 35.90040188 -44.6796875 31.2421875 C-44.27878906 30.3965625 -43.87789063 29.5509375 -43.46484375 28.6796875 C-35.83932371 14.53379525 -23.79801047 6.59095505 -9.078125 1.30859375 C-6.05620485 0.51190571 -3.1059797 0.28071537 0 0 Z " fill="#D34A09" transform="translate(508.6796875,507.7578125)"/>
<path d="M0 0 C0.74001613 -0.00467997 1.48003226 -0.00935994 2.24247313 -0.01418173 C4.71135328 -0.02610616 7.17967572 -0.01668476 9.64855957 -0.00723267 C11.42294131 -0.01129951 13.19732052 -0.01664202 14.97169495 -0.02316284 C19.78363579 -0.03682883 24.59538347 -0.03154073 29.40732765 -0.02202559 C34.44538515 -0.0144253 39.48342622 -0.02147563 44.52148438 -0.02618408 C52.98167894 -0.03164055 61.44179491 -0.02445285 69.90197754 -0.01016235 C79.68024033 0.00616394 89.45831545 0.00087535 99.2365737 -0.01564157 C107.63503674 -0.02925951 116.03344333 -0.03117458 124.43191385 -0.02332556 C129.44661949 -0.01865075 134.46123694 -0.01801895 139.47593689 -0.02793503 C144.19066074 -0.03660687 148.90514286 -0.03057875 153.61984062 -0.01325226 C155.34920793 -0.00928859 157.07859561 -0.01041942 158.80795479 -0.01704025 C161.17050212 -0.02525068 163.53227712 -0.01494079 165.89477539 0 C166.57746727 -0.00669217 167.26015914 -0.01338433 167.96353865 -0.02027929 C172.50314732 0.03532145 175.5853216 1.01623768 179.4473877 3.38095093 C183.34417555 7.69901314 184.82105896 10.37911349 184.72473145 16.28720093 C184.10444963 20.96989178 181.32060487 23.68194337 177.77336121 26.52150059 C173.97897078 28.64282854 171.08383443 28.94129065 166.85681152 28.88215637 C166.11271184 28.88769077 165.36861216 28.89322517 164.601964 28.89892727 C162.11910489 28.91249479 159.63725786 28.89758654 157.15441895 28.88265991 C155.37018406 28.88644452 153.58595212 28.89194573 151.80172729 28.89903259 C146.96286595 28.91298597 142.12436022 28.90181821 137.28551865 28.88532138 C132.2194364 28.87146296 127.15337464 28.87793186 122.08728027 28.88145447 C113.57997919 28.88415596 105.07281925 28.87068619 96.56555176 28.84750366 C86.7327507 28.82089434 76.90018561 28.81914707 67.06736088 28.83089203 C57.60492499 28.84167471 48.14257438 28.83547887 38.68014526 28.82133675 C34.65475446 28.81558122 30.62942614 28.81565623 26.60403442 28.82040215 C21.86303263 28.82517772 17.12228892 28.81504612 12.38133621 28.79344749 C10.64229833 28.78788738 8.90323561 28.78740721 7.16419601 28.79240036 C4.7884998 28.79836559 2.41358936 28.78582494 0.03796387 28.76863098 C-0.64861896 28.77464103 -1.33520178 28.78065107 -2.04259014 28.78684324 C-7.7207489 28.71222237 -11.56960245 26.9986695 -15.9276123 23.44345093 C-18.50933337 18.57789969 -18.28462449 13.76646915 -17.5526123 8.38095093 C-13.88081972 1.46103414 -7.37217347 -0.07226657 0 0 Z " fill="#0C7656" transform="translate(488.5526123046875,324.6190490722656)"/>
<path d="M0 0 C0.33 0 0.66 0 1 0 C1.85609278 16.18579552 2.13544584 32.31887404 2.09765625 48.52514648 C2.0957313 50.98843353 2.09427024 53.45172097 2.0932312 55.91500854 C2.09009987 61.16716089 2.08399528 66.41930038 2.07516479 71.67144585 C2.06247823 79.27339058 2.05650429 86.87533013 2.05223143 94.47728372 C2.0452048 106.82966796 2.03443229 119.18204551 2.02050781 131.53442383 C2.01926609 132.63773276 2.01926609 132.63773276 2.01799929 133.76333077 C2.01209495 138.98805395 2.00605686 144.21277699 2 149.4375 C1.9930599 155.43204741 1.98619729 161.4265949 1.97949219 167.42114258 C1.97866406 168.1603126 1.97783593 168.89948263 1.97698271 169.66105174 C1.96329035 181.99251192 1.95353744 194.32397223 1.94658184 206.65543801 C1.94211249 214.23988635 1.93409724 221.82431506 1.92143703 229.40875424 C1.91200476 235.20887691 1.90766498 241.00899459 1.9051857 246.80912399 C1.90331411 249.18430725 1.89971401 251.55948987 1.89425278 253.93466759 C1.88703034 257.1777285 1.88599926 260.4207355 1.88647461 263.6638031 C1.88287965 264.60143964 1.87928469 265.53907617 1.87558079 266.50512594 C1.88186353 270.5100501 1.99017545 274.3945109 2.53399563 278.3653183 C2.91778668 281.35876302 3.00986893 283.55429172 2.56959534 286.49110413 C1.71834176 293.68916866 1.86861282 300.90625797 1.88647461 308.14233398 C1.88675715 309.75468443 1.88659744 311.367035 1.8860321 312.97938538 C1.88574667 317.33010698 1.89160281 321.68080068 1.89860606 326.03151584 C1.90488511 330.59181496 1.90544709 335.15211482 1.90663147 339.7124176 C1.90973258 348.33938799 1.91792841 356.96634563 1.92798096 365.59331042 C1.93916871 375.4074743 1.94466113 385.22163881 1.94967639 395.03580749 C1.95968474 414.38972521 1.97614737 433.7436322 1.99720669 453.09754086 C1.99910019 455.06502655 2 457.0325134 2 459 C2.01449863 460.43116688 2.0305513 461.86231834 2.04760742 463.29345703 C2.1022269 468.17751226 2.13649888 473.06152733 2.16479492 477.94580078 C2.17975297 480.04024881 2.20012678 482.13466623 2.22631836 484.22900391 C2.63024254 517.44582762 2.63024254 517.44582762 -4.875 530.5625 C-5.22796143 531.21887451 -5.58092285 531.87524902 -5.94458008 532.55151367 C-6.93929729 534.38233042 -7.96475271 536.19190263 -9 538 C-9.48082031 538.88171875 -9.96164062 539.7634375 -10.45703125 540.671875 C-12.77190652 544.6990231 -14.88499861 546.88689118 -19 549 C-19.66 549.99 -20.32 550.98 -21 552 C-23.0642826 553.4199232 -25.0812088 554.69927903 -27.25 555.9375 C-28.1773999 556.46754639 -28.1773999 556.46754639 -29.12353516 557.00830078 C-35.44468578 560.47174791 -41.99628307 562.36231495 -49 564 C-55.2126113 565.4105889 -55.2126113 565.4105889 -61 568 C-61.33 567.01 -61.66 566.02 -62 565 C-62.66 565 -63.32 565 -64 565 C-64 565.66 -64 566.32 -64 567 C-70.39632107 568.2541806 -70.39632107 568.2541806 -73.375 567 C-76.77621507 565.70429902 -79.22753966 566.20532276 -82.77734375 566.703125 C-85.54109249 567.07227246 -88.21670064 567.13916497 -91 567 C-91.33 566.67 -91.66 566.34 -92 566 C-92.66 566.33 -93.32 566.66 -94 567 C-94.33 566.67 -94.66 566.34 -95 566 C-97.05396726 566.40929986 -97.05396726 566.40929986 -99 567 C-99 566.67 -99 566.34 -99 566 C-102.04386724 565.91773332 -104.07175348 566.02391783 -107 567 C-107 566.34 -107 565.68 -107 565 C-107.66 565 -108.32 565 -109 565 C-109.33 565.66 -109.66 566.32 -110 567 C-112.97 566.34 -115.94 565.68 -119 565 C-119 565.66 -119 566.32 -119 567 C-119.99 567 -120.98 567 -122 567 C-122 566.34 -122 565.68 -122 565 C-122.55429687 565.144375 -123.10859375 565.28875 -123.6796875 565.4375 C-124.40414063 565.623125 -125.12859375 565.80875 -125.875 566 C-126.59429688 566.185625 -127.31359375 566.37125 -128.0546875 566.5625 C-130 567 -130 567 -132 567 C-132.5775 567.20625 -133.155 567.4125 -133.75 567.625 C-136.88631348 568.14771891 -139.0584406 567.08709804 -142 566 C-142.66 566 -143.32 566 -144 566 C-144.33 566.66 -144.66 567.32 -145 568 C-145.99 567.34 -146.98 566.68 -148 566 C-148.99 566 -149.98 566 -151 566 C-151.804375 565.979375 -152.60875 565.95875 -153.4375 565.9375 C-155.93490865 565.89277769 -155.93490865 565.89277769 -158 566.5625 C-160 567 -160 567 -162.2734375 566.53125 C-165.13342726 565.97400271 -167.71506689 565.90142645 -170.625 565.9375 C-172.03652344 565.95103516 -172.03652344 565.95103516 -173.4765625 565.96484375 C-174.30929687 565.97644531 -175.14203125 565.98804688 -176 566 C-181 566 -186 566 -191 566 C-191.33 566.66 -191.66 567.32 -192 568 C-193.32 568 -194.64 568 -196 568 C-196.33 567.01 -196.66 566.02 -197 565 C-197.721875 565.350625 -198.44375 565.70125 -199.1875 566.0625 C-202.33041161 567.1101372 -203.85068996 566.78732751 -207 566 C-207.33 566.33 -207.66 566.66 -208 567 C-211.66344611 567.13568319 -214.50615721 567.16461426 -218 566 C-220.63804589 566.39397335 -220.63804589 566.39397335 -223 567 C-223.33 566.34 -223.66 565.68 -224 565 C-224.33 565.99 -224.66 566.98 -225 568 C-227.97 567.67 -230.94 567.34 -234 567 C-234 566.67 -234 566.34 -234 566 C-234.67546875 566.01160156 -235.3509375 566.02320313 -236.046875 566.03515625 C-237.38492188 566.04869141 -237.38492188 566.04869141 -238.75 566.0625 C-239.63171875 566.07410156 -240.5134375 566.08570313 -241.421875 566.09765625 C-243.7818838 566.00826198 -245.74498524 565.66912821 -248 565 C-248 565.66 -248 566.32 -248 567 C-248.7425 566.814375 -249.485 566.62875 -250.25 566.4375 C-253.02319878 565.99630929 -254.35307668 566.31692301 -257 567 C-259.44493162 566.55546698 -261.63542325 565.78819225 -264 565 C-264.33 565.99 -264.66 566.98 -265 568 C-265.33 567.01 -265.66 566.02 -266 565 C-267.98 565.99 -269.96 566.98 -272 568 C-272.99 567.34 -273.98 566.68 -275 566 C-275.99 566.66 -276.98 567.32 -278 568 C-278.66 567.67 -279.32 567.34 -280 567 C-285.41946701 566.0749465 -285.41946701 566.0749465 -290.8125 566.5625 C-291.534375 566.706875 -292.25625 566.85125 -293 567 C-293.99 566.34 -294.98 565.68 -296 565 C-296 565.66 -296 566.32 -296 567 C-297.98 566.67 -299.96 566.34 -302 566 C-302 566.33 -302 566.66 -302 567 C-303.66611905 567.042721 -305.33382885 567.04063832 -307 567 C-307.33 566.67 -307.66 566.34 -308 566 C-309.51469448 565.76807135 -311.03754562 565.58784762 -312.5625 565.4375 C-313.38878906 565.35371094 -314.21507812 565.26992188 -315.06640625 565.18359375 C-315.70449219 565.12300781 -316.34257812 565.06242188 -317 565 C-317 565.66 -317 566.32 -317 567 C-322.33333333 567 -327.66666667 567 -333 567 C-333 566.34 -333 565.68 -333 565 C-333.99 565 -334.98 565 -336 565 C-336 565.66 -336 566.32 -336 567 C-338.64 566.34 -341.28 565.68 -344 565 C-344.33 565.99 -344.66 566.98 -345 568 C-345.66 567.67 -346.32 567.34 -347 567 C-347.598125 567.185625 -348.19625 567.37125 -348.8125 567.5625 C-351 568 -351 568 -353.25 567.0625 C-356.9870053 565.61865704 -360.00741565 565.86465816 -364 566 C-364 566.33 -364 566.66 -364 567 C-365.8871875 567.0309375 -365.8871875 567.0309375 -367.8125 567.0625 C-368.52019531 567.07410156 -369.22789062 567.08570313 -369.95703125 567.09765625 C-372 567 -372 567 -375 566 C-375.99 566.33 -376.98 566.66 -378 567 C-378 566.34 -378 565.68 -378 565 C-379.98 565 -381.96 565 -384 565 C-384 565.66 -384 566.32 -384 567 C-385.98 566.34 -387.96 565.68 -390 565 C-390.33 565.66 -390.66 566.32 -391 567 C-391.33 566.67 -391.66 566.34 -392 566 C-392.99 566.33 -393.98 566.66 -395 567 C-397.6875 566.0625 -397.6875 566.0625 -400 565 C-400 565.66 -400 566.32 -400 567 C-405.33333333 566.33333333 -410.66666667 565.66666667 -416 565 C-416 565.66 -416 566.32 -416 567 C-416.99 566.67 -417.98 566.34 -419 566 C-420.98968251 565.78323842 -422.98435019 565.61090121 -424.98046875 565.46484375 C-426.14384766 565.37783203 -427.30722656 565.29082031 -428.50585938 565.20117188 C-429.72080078 565.11416016 -430.93574219 565.02714844 -432.1875 564.9375 C-433.41404297 564.84662109 -434.64058594 564.75574219 -435.90429688 564.66210938 C-438.93596295 564.43797842 -441.96784637 564.2174188 -445 564 C-445 563.34 -445 562.68 -445 562 C-446.2375 561.814375 -447.475 561.62875 -448.75 561.4375 C-457.98732694 559.3831418 -466.30844434 553.53947485 -473 547 C-473 546.34 -473 545.68 -473 545 C-473.99 544.67 -474.98 544.34 -476 544 C-477.59169307 541.96418283 -478.9947205 539.98510857 -480.375 537.8125 C-480.77203125 537.19044678 -481.1690625 536.56839355 -481.578125 535.92749023 C-488.83109369 524.13697189 -491.08796576 512.08056476 -491.31201172 498.39990234 C-491.33250202 497.30391346 -491.35299232 496.20792458 -491.37410355 495.07872391 C-491.44111004 491.28954147 -491.49887861 487.50030097 -491.5546875 483.7109375 C-491.57583132 482.33478159 -491.5969788 480.95862574 -491.61812973 479.58246994 C-492.3372486 431.71671297 -492.15085569 383.83922647 -492.12946185 335.96943828 C-492.12492643 325.61731706 -492.12582249 315.265207 -492.13037109 304.91308594 C-492.13571681 292.74188956 -492.13772271 280.57070183 -492.13475883 268.39950407 C-492.13320457 262.00696061 -492.13298068 255.61442483 -492.13629532 249.22188187 C-492.13917036 243.27037847 -492.13720534 237.31889647 -492.13140106 231.3673954 C-492.13007519 229.18519819 -492.13046468 227.00299919 -492.13266373 224.82080269 C-492.13537973 221.85411276 -492.13198957 218.88749234 -492.12698364 215.92080688 C-492.12921436 215.05172845 -492.13144509 214.18265001 -492.13374341 213.28723586 C-492.12271166 209.93909709 -492.06624185 207.19872554 -491 204 C-491.66 204 -492.32 204 -493 204 C-492.83628906 202.918396 -492.67257812 201.83679199 -492.50390625 200.72241211 C-491.82930646 195.29401055 -491.89403327 189.9036811 -491.9375 184.44140625 C-491.94128662 183.33884995 -491.94507324 182.23629364 -491.94897461 181.10032654 C-491.96516692 176.42010766 -491.993106 171.73997909 -492.02050781 167.05981445 C-492.23818539 126.32832987 -492.23818539 126.32832987 -489 116 C-488.01 115.505 -488.01 115.505 -487 115 C-487.07055815 115.60964287 -487.14111631 116.21928574 -487.21381259 116.84740263 C-488.08507183 125.19879333 -488.14593438 133.51045161 -488.14044189 141.89610291 C-488.14303021 143.48921787 -488.14604465 145.08233218 -488.1494453 146.67544562 C-488.15746314 151.02843619 -488.15930193 155.38141022 -488.16004276 159.73440731 C-488.16190234 164.43865004 -488.16945392 169.14288437 -488.17617798 173.84712219 C-488.18972227 184.11967502 -488.19577924 194.39222393 -488.20018864 204.66478419 C-488.20295633 211.08273765 -488.2071945 217.5006896 -488.21169281 223.91864204 C-488.22387782 241.70114389 -488.23418031 259.48364455 -488.2375679 277.26615047 C-488.23778747 278.40274334 -488.23800703 279.53933621 -488.23823325 280.71037129 C-488.23845153 281.8496066 -488.23866981 282.98884191 -488.2388947 284.1625995 C-488.23933816 286.4709485 -488.23978472 288.77929749 -488.24023438 291.08764648 C-488.2404558 292.23265554 -488.24067723 293.3776646 -488.24090537 294.55737091 C-488.24485547 313.1204469 -488.26231938 331.68348369 -488.2855939 350.24654453 C-488.30931675 369.3215616 -488.32177009 388.396559 -488.32293582 407.47159106 C-488.32385178 418.17502612 -488.32958468 428.87841002 -488.34775543 439.58183098 C-488.36316865 448.69262882 -488.36826946 457.80335965 -488.36001733 466.91416805 C-488.35611587 471.55971791 -488.35701599 476.20513287 -488.37107468 480.85066605 C-488.38384285 485.10875689 -488.38259061 489.36661187 -488.37048396 493.62470252 C-488.36853208 495.15957261 -488.37158174 496.69445957 -488.38032833 498.22930598 C-488.47748015 516.43991171 -484.19841498 531.39286478 -471.30078125 544.7890625 C-456.92694406 558.60161233 -440.75837084 562.31306653 -421.38237 562.26069641 C-419.79510485 562.26371987 -418.20784115 562.26761032 -416.62058002 562.27228898 C-412.27445035 562.28255274 -407.92840332 562.28039129 -403.58226693 562.27610838 C-398.8888912 562.2736382 -394.19553521 562.28265898 -389.50216675 562.29014587 C-380.31313734 562.30288697 -371.12413716 562.30468728 -361.9351004 562.30234561 C-354.46449511 562.30056156 -346.99389868 562.30231396 -339.52329445 562.30657005 C-338.45946446 562.30716524 -337.39563446 562.30776043 -336.2995672 562.30837366 C-334.13828478 562.30958543 -331.97700236 562.31079956 -329.81571994 562.31201603 C-309.55260448 562.3228894 -289.28950567 562.3207301 -269.02638928 562.31463119 C-250.49874915 562.30946276 -231.97116162 562.32071589 -213.44353189 562.33972941 C-194.40925517 562.35911277 -175.37500332 562.36736289 -156.34071666 562.36360615 C-145.65849471 562.3616948 -134.97631751 562.36417527 -124.29410362 562.37832069 C-115.19972136 562.39024182 -106.1054114 562.39163117 -97.01102813 562.37953053 C-92.37359676 562.37364689 -87.73629757 562.37252817 -83.09887505 562.38453293 C-78.84810026 562.39540863 -74.59756777 562.39226837 -70.34680424 562.37827124 C-68.81456852 562.37562895 -67.28231371 562.37797608 -65.75009676 562.38600711 C-49.20448049 562.4666644 -32.89967423 559.15711735 -20.39453125 547.50390625 C-19.95496094 547.04886719 -19.51539063 546.59382812 -19.0625 546.125 C-18.381875 545.42375 -17.70125 544.7225 -17 544 C-16.34 544 -15.68 544 -15 544 C-14.59394531 543.15115234 -14.59394531 543.15115234 -14.1796875 542.28515625 C-12.95126395 539.90559407 -11.56172102 537.69679964 -10.125 535.4375 C-2.72940741 523.11752503 -0.67079997 509.9805569 -0.76622009 495.78417969 C-0.76471729 494.18657007 -0.76471729 494.18657007 -0.76318413 492.55668551 C-0.76224097 489.01167234 -0.77554842 485.46686124 -0.78881836 481.921875 C-0.79100301 479.3537041 -0.79228182 476.78553229 -0.79273224 474.2173605 C-0.79505071 468.66295991 -0.80460491 463.10860978 -0.81896782 457.55422783 C-0.84003783 449.36244276 -0.8489558 441.17067629 -0.85497988 432.97886791 C-0.86518704 419.34837646 -0.88346401 405.71790856 -0.90625 392.08743286 C-0.95775366 361.04193927 -0.97616616 329.99641404 -0.99208649 298.9508846 C-0.99470473 293.86568379 -0.99760436 288.78048325 -1.00072878 283.69528273 C-1.03993327 219.46157582 -0.86359266 155.23101766 -0.51842737 90.99815369 C-0.4999144 87.54654012 -0.48160843 84.09492552 -0.46335983 80.64331055 C-0.32105384 53.76213249 -0.16881195 26.88102502 0 0 Z M-213 565 C-213 565.33 -213 565.66 -213 566 C-211.35 566 -209.7 566 -208 566 C-208 565.67 -208 565.34 -208 565 C-209.65 565 -211.3 565 -213 565 Z M-89 565 C-85 566 -85 566 -85 566 Z " fill="#04523B" transform="translate(757,288)"/>
<path d="M0 0 C5.22448779 2.98441843 8.51124345 6.27380847 11.4375 11.5 C12.365625 13.10875 12.365625 13.10875 13.3125 14.75 C16.05408117 23.88860391 14.85491608 32.14397868 10.4375 40.5 C7.10753867 46.13531917 0.67276429 50.07681402 -5.4921875 52.1484375 C-13.55011973 53.51676561 -21.11000341 53.31750617 -28.2734375 49.17578125 C-35.19659554 44.10746248 -40.03337831 38.03635892 -41.5625 29.5 C-42.66195678 21.60896212 -40.48087221 14.82463447 -36.0546875 8.265625 C-26.75239968 -3.24325202 -13.7100723 -6.22409999 0 0 Z " fill="#FE9113" transform="translate(525.5625,536.5)"/>
<path d="M0 0 C-4 2 -4 2 -21 3 C-20.67 118.83 -20.34 234.66 -20 354 C-17.69 351.69 -15.38 349.38 -13 347 C-12.34 347.33 -11.68 347.66 -11 348 C-11.61488281 348.60328125 -12.22976563 349.2065625 -12.86328125 349.828125 C-13.67152344 350.62734375 -14.47976563 351.4265625 -15.3125 352.25 C-16.11300781 353.03890625 -16.91351563 353.8278125 -17.73828125 354.640625 C-20.2498407 357.16579574 -20.2498407 357.16579574 -23 361 C-23 242.53 -23 124.06 -23 2 C-6.125 -0.25 -6.125 -0.25 0 0 Z " fill="#CEE5A1" transform="translate(315,412)"/>
<path d="M0 0 C124.74 0 249.48 0 378 0 C376 3 376 3 373.375 3.6875 C372.199375 3.8421875 372.199375 3.8421875 371 4 C371 3.01 371 2.02 371 1 C370.34 1 369.68 1 369 1 C369 1.66 369 2.32 369 3 C362.60367893 4.2541806 362.60367893 4.2541806 359.625 3 C356.22378493 1.70429902 353.77246034 2.20532276 350.22265625 2.703125 C347.45890751 3.07227246 344.78329936 3.13916497 342 3 C341.67 2.67 341.34 2.34 341 2 C340.34 2.33 339.68 2.66 339 3 C338.67 2.67 338.34 2.34 338 2 C335.94603274 2.40929986 335.94603274 2.40929986 334 3 C334 2.67 334 2.34 334 2 C330.95613276 1.91773332 328.92824652 2.02391783 326 3 C326 2.34 326 1.68 326 1 C325.34 1 324.68 1 324 1 C323.67 1.66 323.34 2.32 323 3 C320.03 2.34 317.06 1.68 314 1 C314 1.66 314 2.32 314 3 C313.01 3 312.02 3 311 3 C311 2.34 311 1.68 311 1 C310.44570313 1.144375 309.89140625 1.28875 309.3203125 1.4375 C308.59585937 1.623125 307.87140625 1.80875 307.125 2 C306.40570312 2.185625 305.68640625 2.37125 304.9453125 2.5625 C303 3 303 3 301 3 C300.4225 3.20625 299.845 3.4125 299.25 3.625 C296.11368652 4.14771891 293.9415594 3.08709804 291 2 C290.34 2 289.68 2 289 2 C288.67 2.66 288.34 3.32 288 4 C287.01 3.34 286.02 2.68 285 2 C284.01 2 283.02 2 282 2 C280.7934375 1.9690625 280.7934375 1.9690625 279.5625 1.9375 C277.06509135 1.89277769 277.06509135 1.89277769 275 2.5625 C273 3 273 3 270.7265625 2.53125 C267.86657274 1.97400271 265.28493311 1.90142645 262.375 1.9375 C260.96347656 1.95103516 260.96347656 1.95103516 259.5234375 1.96484375 C258.69070313 1.97644531 257.85796875 1.98804688 257 2 C252 2 247 2 242 2 C241.67 2.66 241.34 3.32 241 4 C239.68 4 238.36 4 237 4 C236.67 3.01 236.34 2.02 236 1 C235.278125 1.350625 234.55625 1.70125 233.8125 2.0625 C230.66958839 3.1101372 229.14931004 2.78732751 226 2 C225.67 2.33 225.34 2.66 225 3 C221.33655389 3.13568319 218.49384279 3.16461426 215 2 C212.36195411 2.39397335 212.36195411 2.39397335 210 3 C209.67 2.34 209.34 1.68 209 1 C208.67 1.99 208.34 2.98 208 4 C205.03 3.67 202.06 3.34 199 3 C199 2.67 199 2.34 199 2 C198.32453125 2.01160156 197.6490625 2.02320313 196.953125 2.03515625 C196.06109375 2.04417969 195.1690625 2.05320312 194.25 2.0625 C192.92742187 2.07990234 192.92742187 2.07990234 191.578125 2.09765625 C189.2181162 2.00826198 187.25501476 1.66912821 185 1 C185 1.66 185 2.32 185 3 C184.2575 2.814375 183.515 2.62875 182.75 2.4375 C179.97680122 1.99630929 178.64692332 2.31692301 176 3 C173.55506838 2.55546698 171.36457675 1.78819225 169 1 C168.67 1.99 168.34 2.98 168 4 C167.67 3.01 167.34 2.02 167 1 C165.02 1.99 163.04 2.98 161 4 C160.01 3.34 159.02 2.68 158 2 C157.01 2.66 156.02 3.32 155 4 C154.01 3.505 154.01 3.505 153 3 C147.58053299 2.0749465 147.58053299 2.0749465 142.1875 2.5625 C141.465625 2.706875 140.74375 2.85125 140 3 C139.01 2.34 138.02 1.68 137 1 C137 1.66 137 2.32 137 3 C135.02 2.67 133.04 2.34 131 2 C131 2.33 131 2.66 131 3 C129.33388095 3.042721 127.66617115 3.04063832 126 3 C125.505 2.505 125.505 2.505 125 2 C123.48530552 1.76807135 121.96245438 1.58784762 120.4375 1.4375 C119.19806641 1.31181641 119.19806641 1.31181641 117.93359375 1.18359375 C117.29550781 1.12300781 116.65742188 1.06242188 116 1 C116 1.66 116 2.32 116 3 C110.66666667 3 105.33333333 3 100 3 C100 2.34 100 1.68 100 1 C99.01 1 98.02 1 97 1 C97 1.66 97 2.32 97 3 C94.36 2.34 91.72 1.68 89 1 C88.67 1.99 88.34 2.98 88 4 C87.01 3.505 87.01 3.505 86 3 C85.401875 3.185625 84.80375 3.37125 84.1875 3.5625 C82 4 82 4 79.75 3.0625 C76.0129947 1.61865704 72.99258435 1.86465816 69 2 C69 2.33 69 2.66 69 3 C67.741875 3.020625 66.48375 3.04125 65.1875 3.0625 C64.47980469 3.07410156 63.77210938 3.08570313 63.04296875 3.09765625 C61 3 61 3 58 2 C57.01 2.33 56.02 2.66 55 3 C55 2.34 55 1.68 55 1 C53.02 1 51.04 1 49 1 C49 1.66 49 2.32 49 3 C47.02 2.34 45.04 1.68 43 1 C42.67 1.66 42.34 2.32 42 3 C41.505 2.505 41.505 2.505 41 2 C40.01 2.33 39.02 2.66 38 3 C35.3125 2.0625 35.3125 2.0625 33 1 C33 1.66 33 2.32 33 3 C25 2 25 2 17 1 C17 1.66 17 2.32 17 3 C16.01 2.67 15.02 2.34 14 2 C11.60745424 1.77439324 9.21071877 1.59151405 6.8125 1.4375 C5.54019531 1.35371094 4.26789063 1.26992188 2.95703125 1.18359375 C1.98121094 1.12300781 1.00539063 1.06242188 0 1 C0 0.67 0 0.34 0 0 Z M220 1 C220 1.33 220 1.66 220 2 C221.65 2 223.3 2 225 2 C225 1.67 225 1.34 225 1 C223.35 1 221.7 1 220 1 Z M344 1 C348 2 348 2 348 2 Z " fill="#0E7656" transform="translate(324,852)"/>
<path d="M0 0 C0.33 0 0.66 0 1 0 C1.144375 0.7425 1.28875 1.485 1.4375 2.25 C1.75873059 3.82046068 2.10597247 5.38727387 2.52905273 6.93341064 C3.31592954 10.38634763 3.09972007 13.89888692 3.0625 17.421875 C3.05871338 18.24069153 3.05492676 19.05950806 3.05102539 19.90313721 C3.03473999 23.39577436 3.00671709 26.88829304 2.97949219 30.38085938 C2.96128089 32.93619229 2.94926235 35.49150551 2.9375 38.046875 C2.92920166 38.82424011 2.92090332 39.60160522 2.91235352 40.40252686 C2.89610295 44.07882187 3.02858725 47.61861071 3.53100586 51.26318359 C3.91965259 54.35981393 4.00229922 56.6953328 3.56640625 59.7421875 C2.87384417 65.54725839 2.88920776 71.28535352 2.9375 77.125 C2.94201172 78.176875 2.94652344 79.22875 2.95117188 80.3125 C2.96281989 82.87506221 2.97917447 85.43749877 3 88 C2.34 88 1.68 88 1 88 C1 108.13 1 128.26 1 149 C0.67 149 0.34 149 0 149 C0 99.83 0 50.66 0 0 Z " fill="#067252" transform="translate(756,515)"/>
<path d="M0 0 C-0.90987671 0.36013184 -0.90987671 0.36013184 -1.83813477 0.72753906 C-21.70008695 8.64773232 -41.70097035 17.23468383 -59 30 C-60.52173828 31.09828125 -60.52173828 31.09828125 -62.07421875 32.21875 C-70.46820125 38.39963456 -78.00163232 45.40747668 -85.48876953 52.64648438 C-87 54 -87 54 -90 56 C-82.59464552 39.85297009 -61.77830035 28.49505382 -47.28198242 19.52661133 C-45.4887361 18.40140842 -43.73922454 17.20702609 -42 16 C-42 15.34 -42 14.68 -42 14 C-41.19691406 13.92265625 -40.39382813 13.8453125 -39.56640625 13.765625 C-34.95494733 12.77565134 -31.14043428 10.84368003 -26.9375 8.75 C-5.52425196 -1.62904948 -5.52425196 -1.62904948 0 0 Z " fill="#07573F" transform="translate(370,178)"/>
<path d="M0 0 C0.33 0 0.66 0 1 0 C1.12375 0.969375 1.2475 1.93875 1.375 2.9375 C3.62101914 18.28851893 9.4934957 31.30688652 21 42 C21.68578125 42.64324219 22.3715625 43.28648437 23.078125 43.94921875 C31.49964337 51.13870017 42.18080929 55.13462229 53 57 C53 57.66 53 58.32 53 59 C50.36 59 47.72 59 45 59 C45 58.34 45 57.68 45 57 C43.7625 56.814375 42.525 56.62875 41.25 56.4375 C32.01267306 54.3831418 23.69155566 48.53947485 17 42 C17 41.34 17 40.68 17 40 C15.515 39.505 15.515 39.505 14 39 C5.14078666 27.66883387 -1.34965012 14.69619019 0 0 Z " fill="#07533C" transform="translate(267,793)"/>
<path d="M0 0 C15.33940817 2.27376183 28.34063328 8.88041346 37.6796875 21.44140625 C43.90850384 30.43982572 48.84248135 39.83712205 48 51 C47.67 51 47.34 51 47 51 C46.67128906 49.56720703 46.67128906 49.56720703 46.3359375 48.10546875 C42.69946111 32.99044383 36.11774957 19.32760268 22.7421875 10.56640625 C15.22233426 6.27087755 7.49477635 3.55737566 -1 2 C-0.67 1.34 -0.34 0.68 0 0 Z " fill="#06553D" transform="translate(709,235)"/>
<path d="M0 0 C0.99 0.495 0.99 0.495 2 1 C1.99476318 2.01835938 1.98952637 3.03671875 1.98413086 4.0859375 C1.96591264 7.89533597 1.95450699 11.70473066 1.94506836 15.51416016 C1.94006637 17.15707041 1.93326267 18.79997627 1.92456055 20.44287109 C1.9123126 22.81609181 1.90673021 25.18925323 1.90234375 27.5625 C1.89718246 28.28679199 1.89202118 29.01108398 1.88670349 29.75732422 C1.88618209 34.59037327 2.35591513 39.2104271 3 44 C2.87890625 46.30078125 2.87890625 46.30078125 2.5625 48.3125 C1.55827964 56.48788369 1.92403187 64.77856046 2 73 C1.34 73 0.68 73 0 73 C0 48.91 0 24.82 0 0 Z " fill="#06563D" transform="translate(757,526)"/>
<path d="M0 0 C-0.90363281 0.45890625 -1.80726563 0.9178125 -2.73828125 1.390625 C-3.9299477 2.00991623 -5.12133966 2.62973585 -6.3125 3.25 C-8.07013672 4.15492188 -8.07013672 4.15492188 -9.86328125 5.078125 C-12.8430815 6.90385567 -14.1623438 8.11796155 -16 11 C-16.92652736 12.11339002 -17.86404609 13.21772813 -18.8125 14.3125 C-19.33070313 14.91320312 -19.84890625 15.51390625 -20.3828125 16.1328125 C-21.4609375 17.37760417 -22.5390625 18.62239583 -23.6171875 19.8671875 C-26.1840193 22.84266913 -28.7016281 25.8078168 -31 29 C-29.45220069 19.034955 -21.42905702 11.28285965 -14 5 C-4.36695652 -1.45565217 -4.36695652 -1.45565217 0 0 Z " fill="#CA2B04" transform="translate(495,513)"/>
<path d="M0 0 C15.13667089 -0.75578384 15.13667089 -0.75578384 19.5390625 2.328125 C24.89407012 8.45631554 28.18169076 16.64502829 28.0625 24.75 C28.05347656 25.54921875 28.04445313 26.3484375 28.03515625 27.171875 C28.02355469 27.77515625 28.01195312 28.3784375 28 29 C25.32898215 24.99347323 24.69452698 20.72263491 23.76367188 16.06835938 C22.57901176 10.81358068 20.87848 7.78788776 17 4 C13.3167594 1.96499469 9.853176 1.64965996 5.6875 1.375 C4.08455078 1.26285156 4.08455078 1.26285156 2.44921875 1.1484375 C1.23685547 1.07496094 1.23685547 1.07496094 0 1 C0 0.67 0 0.34 0 0 Z " fill="#064F38" transform="translate(429,161)"/>
<path d="M0 0 C2.4399019 2.4399019 2.29657409 3.14494141 2.3125 6.5 C2.13628788 14.62925262 -0.0732211 21.54422075 -5 28 C-5 25 -5 25 -4.0625 23.1875 C-2.75569653 20.49702226 -2.40213297 17.94897515 -2 15 C-1.34 15 -0.68 15 0 15 C0 10.05 0 5.1 0 0 Z " fill="#F1E347" transform="translate(596,630)"/>
<path d="M0 0 C0.99 1.32 1.98 2.64 3 4 C2.67 4.33 2.34 4.66 2 5 C1.84285346 6.63256758 1.74914586 8.27135338 1.68359375 9.91015625 C1.64169922 10.89951172 1.59980469 11.88886719 1.55664062 12.90820312 C1.49766602 14.46958008 1.49766602 14.46958008 1.4375 16.0625 C1.39431641 17.10728516 1.35113281 18.15207031 1.30664062 19.22851562 C1.20018775 21.81886884 1.0981724 24.40932186 1 27 C-0.61375132 24.15025188 -1.24962368 22.11714071 -1.23046875 18.84765625 C-1.22853516 18.07099609 -1.22660156 17.29433594 -1.22460938 16.49414062 C-1.21236328 15.69169922 -1.20011719 14.88925781 -1.1875 14.0625 C-1.18685547 13.26392578 -1.18621094 12.46535156 -1.18554688 11.64257812 C-1.15568312 7.63751677 -0.98674228 3.90749942 0 0 Z " fill="#FAED4A" transform="translate(479,459)"/>
<path d="M0 0 C0.33 0 0.66 0 1 0 C1 1.98 1 3.96 1 6 C1.66 6 2.32 6 3 6 C3.09688221 11.44693314 3.12862175 16.63904667 2 22 C1.67 22 1.34 22 1 22 C0.16788724 16.96145894 -0.1078534 12.1874338 -0.0625 7.0625 C-0.05798828 6.37865234 -0.05347656 5.69480469 -0.04882812 4.99023438 C-0.0371956 3.32678396 -0.01926694 1.6633795 0 0 Z " fill="#055E42" transform="translate(756,500)"/>
<path d="M0 0 C5.4146739 0.43317391 8.80729382 1.48982738 13 5 C15.12646063 8.67297744 15.19495279 11.80851493 15 16 C13.82979737 13.65959474 12.6973909 11.32600701 11.625 8.9375 C8.80825354 3.84568909 5.46180668 2.61371561 0 1 C0 0.67 0 0.34 0 0 Z " fill="#F0E74B" transform="translate(439,572)"/>
<path d="M0 0 C0.66 0.33 1.32 0.66 2 1 C1.34 1.433125 0.68 1.86625 0 2.3125 C-0.66 2.869375 -1.32 3.42625 -2 4 C-2 4.99 -2 5.98 -2 7 C-2.66 7.66 -3.32 8.32 -4 9 C-4.45811675 10.97235333 -4.45811675 10.97235333 -4.625 13.125 C-4.74875 14.40375 -4.8725 15.6825 -5 17 C-5.33 17 -5.66 17 -6 17 C-6.62757528 7.0459588 -6.62757528 7.0459588 -4.125 2.875 C-2 1 -2 1 0 0 Z " fill="#08513E" transform="translate(477,327)"/>
<path d="M0 0 C0.33 0.66 0.66 1.32 1 2 C1.99 2.33 2.98 2.66 4 3 C4.0825 3.845625 4.165 4.69125 4.25 5.5625 C4.91406274 8.60612091 5.55710619 10.171085 7.125 12.75 C7.74375 13.8225 8.3625 14.895 9 16 C8.67 16.66 8.34 17.32 8 18 C7.03697644 16.44038638 6.07978996 14.87716775 5.125 13.3125 C4.59132813 12.44238281 4.05765625 11.57226562 3.5078125 10.67578125 C1.46170563 7.04473668 0 4.20230146 0 0 Z " fill="#0A503C" transform="translate(368,551)"/>
<path d="M0 0 C0.33 0 0.66 0 1 0 C1 5.61 1 11.22 1 17 C-0.32 16.34 -1.64 15.68 -3 15 C-2.34 15 -1.68 15 -1 15 C-1.020625 13.824375 -1.04125 12.64875 -1.0625 11.4375 C-1.06947261 7.52586533 -0.64250343 3.85502056 0 0 Z " fill="#EEF7AE" transform="translate(451,461)"/>
<path d="M0 0 C-1.49076434 3.2826932 -3.38620321 5.93077441 -5.625 8.75 C-6.57246094 9.94882813 -6.57246094 9.94882813 -7.5390625 11.171875 C-8.02117187 11.77515625 -8.50328125 12.3784375 -9 13 C-9.66 12.67 -10.32 12.34 -11 12 C-4.64705882 0 -4.64705882 0 0 0 Z " fill="#08583F" transform="translate(279,235)"/>
<path d="M0 0 C2.69282475 4.03923713 3.13300939 6.95536152 3.0625 11.75 C3.05347656 12.54921875 3.04445313 13.3484375 3.03515625 14.171875 C3.01775391 15.07679688 3.01775391 15.07679688 3 16 C0.83198169 12.74797253 0.42429207 10.69295049 -0.1875 6.875 C-0.36667969 5.79992187 -0.54585938 4.72484375 -0.73046875 3.6171875 C-0.81941406 2.75351563 -0.90835937 1.88984375 -1 1 C-0.67 0.67 -0.34 0.34 0 0 Z " fill="#055940" transform="translate(454,174)"/>
<path d="M0 0 C0.33 0.99 0.66 1.98 1 3 C-1.79870027 4.39935013 -3.90498792 4.25265405 -7 4 C-7.99 3.01 -8.98 2.02 -10 1 C-6.7 0.67 -3.4 0.34 0 0 Z " fill="#F7DC49" transform="translate(474,512)"/>
<path d="M0 0 C0.66 0.33 1.32 0.66 2 1 C1.01 1.33 0.02 1.66 -1 2 C-1.33 2.99 -1.66 3.98 -2 5 C-4.375 6.5625 -4.375 6.5625 -7 8 C-7.99 8.66 -8.98 9.32 -10 10 C-8.26548969 5.31682216 -4.40759243 2.20379621 0 0 Z " fill="#FDA618" transform="translate(500,536)"/>
<path d="M0 0 C-1.28913487 0.67154933 -2.58140204 1.33708859 -3.875 2 C-4.59429687 2.37125 -5.31359375 2.7425 -6.0546875 3.125 C-8 4 -8 4 -10 4 C-10 4.66 -10 5.32 -10 6 C-11.65 6 -13.3 6 -15 6 C-12.74109621 3.48045346 -10.582103 2.12667267 -7.5 0.75 C-6.7265625 0.39421875 -5.953125 0.0384375 -5.15625 -0.328125 C-3 -1 -3 -1 0 0 Z " fill="#E3EFAA" transform="translate(367,396)"/>
<path d="M0 0 C0.66 0.66 1.32 1.32 2 2 C-0.97 4.64 -3.94 7.28 -7 10 C-7.66 9.34 -8.32 8.68 -9 8 C-6.03 5.36 -3.06 2.72 0 0 Z " fill="#095F44" transform="translate(301,212)"/>
<path d="M0 0 C1.32 0.33 2.64 0.66 4 1 C4.33 3.31 4.66 5.62 5 8 C4.34 8 3.68 8 3 8 C2.01 5.36 1.02 2.72 0 0 Z " fill="#F7DC48" transform="translate(392,543)"/>
<path d="M0 0 C0.66 0 1.32 0 2 0 C1.67 4.62 1.34 9.24 1 14 C0.67 14 0.34 14 0 14 C-1.33257403 4.58997722 -1.33257403 4.58997722 0 0 Z " fill="#055943" transform="translate(266,665)"/>
<path d="M0 0 C0.33 0.66 0.66 1.32 1 2 C0.06409496 3.1055189 -0.87379858 4.20935453 -1.8125 5.3125 C-2.33457031 5.92738281 -2.85664063 6.54226563 -3.39453125 7.17578125 C-4.87172469 8.85424679 -6.40039131 10.43882034 -8 12 C-6.49087042 7.01987239 -3.44338151 3.75740058 0 0 Z " fill="#064D3E" transform="translate(381,492)"/>
<path d="M0 0 C0.99 1.32 1.98 2.64 3 4 C2.01 6.31 1.02 8.62 0 11 C-0.33 11 -0.66 11 -1 11 C-0.67 7.37 -0.34 3.74 0 0 Z " fill="#E9DE4E" transform="translate(479,459)"/>
<path d="M0 0 C0.33 0 0.66 0 1 0 C1.33 2.97 1.66 5.94 2 9 C1.34 9 0.68 9 0 9 C-0.33 9.66 -0.66 10.32 -1 11 C-0.67 7.37 -0.34 3.74 0 0 Z " fill="#E5F0AA" transform="translate(459,265)"/>
<path d="M0 0 C1.32 0.33 2.64 0.66 4 1 C2.68 1.33 1.36 1.66 0 2 C0 1.34 0 0.68 0 0 Z " fill="#0E7254" transform="translate(397,854)"/>
<path d="M0 0 C4 1 4 1 4 1 Z " fill="#107354" transform="translate(570,854)"/>
<path d="M0 0 C3 1 3 1 3 1 Z " fill="#0D7153" transform="translate(654,854)"/>
<path d="M0 0 C3 1 3 1 3 1 Z " fill="#0E7052" transform="translate(586,854)"/>
<path d="M0 0 C3 1 3 1 3 1 Z " fill="#0E7254" transform="translate(519,854)"/>
<path d="M0 0 C3 1 3 1 3 1 Z " fill="#0E7052" transform="translate(515,854)"/>
<path d="M0 0 C3 1 3 1 3 1 Z " fill="#0E7354" transform="translate(469,854)"/>
<path d="M0 0 C3 1 3 1 3 1 Z " fill="#0E7554" transform="translate(374,854)"/>
<path d="M0 0 C3 1 3 1 3 1 Z " fill="#0F7253" transform="translate(326,854)"/>
<path d="M0 0 C0.66 0 1.32 0 2 0 C1.67 0.66 1.34 1.32 1 2 C0.67 1.34 0.34 0.68 0 0 Z " fill="#0F6F53" transform="translate(265,805)"/>
<path d="" fill="#0F7655" transform="translate(0,0)"/>
<path d="" fill="#0E7558" transform="translate(0,0)"/>
<path d="" fill="#0D7356" transform="translate(0,0)"/>
<path d="" fill="#0F7456" transform="translate(0,0)"/>
<path d="" fill="#0D7353" transform="translate(0,0)"/>
<path d="M0 0 C0.33 0.66 0.66 1.32 1 2 C0.34 1.67 -0.32 1.34 -1 1 C-0.67 0.67 -0.34 0.34 0 0 Z " fill="#127455" transform="translate(260,389)"/>
<path d="M0 0 C0.33 0.66 0.66 1.32 1 2 C0.34 1.67 -0.32 1.34 -1 1 C-0.67 0.67 -0.34 0.34 0 0 Z " fill="#117A58" transform="translate(576,232)"/>
<path d="M0 0 C3 1 3 1 3 1 Z " fill="#0E7456" transform="translate(344,184)"/>
<path d="" fill="#0E7554" transform="translate(0,0)"/>
<path d="" fill="#0D7353" transform="translate(0,0)"/>
<path d="M0 0 C2 1 2 1 2 1 Z " fill="#0F7455" transform="translate(631,854)"/>
<path d="M0 0 C2 1 2 1 2 1 Z " fill="#0F7353" transform="translate(539,854)"/>
<path d="M0 0 C2 1 2 1 2 1 Z " fill="#0F7456" transform="translate(496,854)"/>
<path d="M0 0 C2 1 2 1 2 1 Z " fill="#0F7455" transform="translate(447,854)"/>
<path d="M0 0 C2 1 2 1 2 1 Z " fill="#0F7255" transform="translate(394,854)"/>
<path d="M0 0 C2 1 2 1 2 1 Z " fill="#0E7254" transform="translate(350,854)"/>
<path d="M0 0 C2 1 2 1 2 1 Z " fill="#107254" transform="translate(347,854)"/>
<path d="M0 0 C2 1 2 1 2 1 Z " fill="#107253" transform="translate(343,854)"/>
<path d="M0 0 C2 1 2 1 2 1 Z " fill="#0F7154" transform="translate(331,854)"/>
<path d="M0 0 C2 1 2 1 2 1 Z " fill="#0F7154" transform="translate(323,854)"/>
<path d="M0 0 C2 1 2 1 2 1 Z " fill="#117153" transform="translate(704,853)"/>
<path d="M0 0 C2 1 2 1 2 1 Z " fill="#117052" transform="translate(313,852)"/>
<path d="" fill="#116B50" transform="translate(0,0)"/>
<path d="" fill="#0D7356" transform="translate(0,0)"/>
<path d="" fill="#0E7357" transform="translate(0,0)"/>
<path d="" fill="#0C7357" transform="translate(0,0)"/>
<path d="" fill="#0D7354" transform="translate(0,0)"/>
<path d="" fill="#0C7456" transform="translate(0,0)"/>
<path d="" fill="#12785A" transform="translate(0,0)"/>
<path d="M0 0 C2 1 2 1 2 1 Z " fill="#0F7354" transform="translate(256,385)"/>
<path d="" fill="#127355" transform="translate(0,0)"/>
<path d="" fill="#127456" transform="translate(0,0)"/>
<path d="" fill="#127154" transform="translate(0,0)"/>
<path d="" fill="#127154" transform="translate(0,0)"/>
<path d="M0 0 C2 1 2 1 2 1 Z " fill="#127A58" transform="translate(556,233)"/>
<path d="" fill="#106F50" transform="translate(0,0)"/>
<path d="M0 0 C2 1 2 1 2 1 Z " fill="#0C6F50" transform="translate(443,160)"/>
<path d="" fill="#323C2D" transform="translate(0,0)"/>
<path d="" fill="#173A27" transform="translate(0,0)"/>
<path d="" fill="#0F7556" transform="translate(0,0)"/>
<path d="" fill="#0E7355" transform="translate(0,0)"/>
<path d="" fill="#0D7253" transform="translate(0,0)"/>
<path d="" fill="#0C7552" transform="translate(0,0)"/>
<path d="" fill="#107555" transform="translate(0,0)"/>
<path d="" fill="#0C7251" transform="translate(0,0)"/>
<path d="" fill="#0F7354" transform="translate(0,0)"/>
<path d="" fill="#0E7254" transform="translate(0,0)"/>
<path d="" fill="#107352" transform="translate(0,0)"/>
<path d="" fill="#0E7554" transform="translate(0,0)"/>
<path d="" fill="#0E7555" transform="translate(0,0)"/>
<path d="" fill="#0E7454" transform="translate(0,0)"/>
<path d="" fill="#0E7253" transform="translate(0,0)"/>
<path d="" fill="#107053" transform="translate(0,0)"/>
<path d="" fill="#0F7455" transform="translate(0,0)"/>
<path d="" fill="#127354" transform="translate(0,0)"/>
<path d="" fill="#0A7053" transform="translate(0,0)"/>
<path d="" fill="#0F7254" transform="translate(0,0)"/>
<path d="" fill="#0D7552" transform="translate(0,0)"/>
<path d="" fill="#107555" transform="translate(0,0)"/>
<path d="" fill="#0D7353" transform="translate(0,0)"/>
<path d="" fill="#0F7353" transform="translate(0,0)"/>
<path d="" fill="#107352" transform="translate(0,0)"/>
<path d="" fill="#0F7355" transform="translate(0,0)"/>
<path d="" fill="#0E7453" transform="translate(0,0)"/>
<path d="" fill="#107456" transform="translate(0,0)"/>
<path d="" fill="#0F7454" transform="translate(0,0)"/>
<path d="" fill="#117154" transform="translate(0,0)"/>
<path d="" fill="#107756" transform="translate(0,0)"/>
<path d="" fill="#0F7253" transform="translate(0,0)"/>
<path d="" fill="#127454" transform="translate(0,0)"/>
<path d="" fill="#126E52" transform="translate(0,0)"/>
<path d="" fill="#117555" transform="translate(0,0)"/>
<path d="" fill="#107254" transform="translate(0,0)"/>
<path d="" fill="#0F7152" transform="translate(0,0)"/>
<path d="" fill="#106D51" transform="translate(0,0)"/>
<path d="" fill="#136C52" transform="translate(0,0)"/>
<path d="" fill="#116D50" transform="translate(0,0)"/>
<path d="" fill="#10684D" transform="translate(0,0)"/>
<path d="" fill="#137151" transform="translate(0,0)"/>
<path d="" fill="#116A4F" transform="translate(0,0)"/>
<path d="" fill="#10664C" transform="translate(0,0)"/>
<path d="" fill="#0F6D50" transform="translate(0,0)"/>
<path d="" fill="#106D51" transform="translate(0,0)"/>
<path d="" fill="#0F6C4F" transform="translate(0,0)"/>
<path d="" fill="#0F7453" transform="translate(0,0)"/>
<path d="" fill="#0F6F51" transform="translate(0,0)"/>
<path d="" fill="#0D6F52" transform="translate(0,0)"/>
<path d="" fill="#0C7555" transform="translate(0,0)"/>
<path d="" fill="#0F7355" transform="translate(0,0)"/>
<path d="" fill="#0E7657" transform="translate(0,0)"/>
<path d="" fill="#0C7458" transform="translate(0,0)"/>
<path d="" fill="#0E7457" transform="translate(0,0)"/>
<path d="" fill="#0E7555" transform="translate(0,0)"/>
<path d="" fill="#0E7555" transform="translate(0,0)"/>
<path d="" fill="#0D7558" transform="translate(0,0)"/>
<path d="" fill="#0E7556" transform="translate(0,0)"/>
<path d="" fill="#0E7656" transform="translate(0,0)"/>
<path d="" fill="#0D7459" transform="translate(0,0)"/>
<path d="" fill="#0B7556" transform="translate(0,0)"/>
<path d="" fill="#0F7D5C" transform="translate(0,0)"/>
<path d="" fill="#0D7356" transform="translate(0,0)"/>
<path d="" fill="#0E7457" transform="translate(0,0)"/>
<path d="" fill="#0D7357" transform="translate(0,0)"/>
<path d="" fill="#0C7456" transform="translate(0,0)"/>
<path d="" fill="#0E7254" transform="translate(0,0)"/>
<path d="" fill="#0E7654" transform="translate(0,0)"/>
<path d="" fill="#0D7256" transform="translate(0,0)"/>
<path d="" fill="#0C7155" transform="translate(0,0)"/>
<path d="" fill="#0B7554" transform="translate(0,0)"/>
<path d="" fill="#0B7659" transform="translate(0,0)"/>
<path d="" fill="#0C7353" transform="translate(0,0)"/>
<path d="" fill="#0E7557" transform="translate(0,0)"/>
<path d="" fill="#107455" transform="translate(0,0)"/>
<path d="" fill="#0C7555" transform="translate(0,0)"/>
<path d="" fill="#0C7155" transform="translate(0,0)"/>
<path d="" fill="#0D7054" transform="translate(0,0)"/>
<path d="" fill="#0E7556" transform="translate(0,0)"/>
<path d="" fill="#0B7455" transform="translate(0,0)"/>
<path d="" fill="#0D7557" transform="translate(0,0)"/>
<path d="" fill="#0D7156" transform="translate(0,0)"/>
<path d="" fill="#0E7456" transform="translate(0,0)"/>
<path d="" fill="#107656" transform="translate(0,0)"/>
<path d="" fill="#0F7156" transform="translate(0,0)"/>
<path d="" fill="#0F7757" transform="translate(0,0)"/>
<path d="" fill="#0F7656" transform="translate(0,0)"/>
<path d="" fill="#117456" transform="translate(0,0)"/>
<path d="" fill="#0F6F53" transform="translate(0,0)"/>
<path d="" fill="#107253" transform="translate(0,0)"/>
<path d="" fill="#117153" transform="translate(0,0)"/>
<path d="" fill="#127352" transform="translate(0,0)"/>
<path d="" fill="#107554" transform="translate(0,0)"/>
<path d="" fill="#223729" transform="translate(0,0)"/>
<path d="" fill="#137257" transform="translate(0,0)"/>
<path d="" fill="#127358" transform="translate(0,0)"/>
<path d="" fill="#127355" transform="translate(0,0)"/>
<path d="" fill="#107352" transform="translate(0,0)"/>
<path d="" fill="#0E7153" transform="translate(0,0)"/>
<path d="" fill="#117555" transform="translate(0,0)"/>
<path d="" fill="#117052" transform="translate(0,0)"/>
<path d="" fill="#117457" transform="translate(0,0)"/>
<path d="" fill="#116D50" transform="translate(0,0)"/>
<path d="" fill="#12704F" transform="translate(0,0)"/>
<path d="" fill="#107153" transform="translate(0,0)"/>
<path d="" fill="#0F6E52" transform="translate(0,0)"/>
<path d="" fill="#0E6D53" transform="translate(0,0)"/>
<path d="" fill="#117357" transform="translate(0,0)"/>
<path d="" fill="#0E6C50" transform="translate(0,0)"/>
<path d="" fill="#116F51" transform="translate(0,0)"/>
<path d="" fill="#127352" transform="translate(0,0)"/>
<path d="" fill="#116D50" transform="translate(0,0)"/>
<path d="" fill="#107153" transform="translate(0,0)"/>
<path d="" fill="#0D7052" transform="translate(0,0)"/>
<path d="" fill="#107A59" transform="translate(0,0)"/>
<path d="" fill="#0E7657" transform="translate(0,0)"/>
<path d="" fill="#107D5A" transform="translate(0,0)"/>
<path d="" fill="#107758" transform="translate(0,0)"/>
<path d="" fill="#0D7958" transform="translate(0,0)"/>
<path d="" fill="#0F7A59" transform="translate(0,0)"/>
<path d="" fill="#0D7955" transform="translate(0,0)"/>
<path d="" fill="#0E7857" transform="translate(0,0)"/>
<path d="" fill="#0D7C58" transform="translate(0,0)"/>
<path d="" fill="#0F7656" transform="translate(0,0)"/>
<path d="" fill="#0F7957" transform="translate(0,0)"/>
<path d="" fill="#0F7A58" transform="translate(0,0)"/>
<path d="" fill="#117D58" transform="translate(0,0)"/>
<path d="" fill="#0F7A59" transform="translate(0,0)"/>
<path d="" fill="#117A5A" transform="translate(0,0)"/>
<path d="" fill="#107855" transform="translate(0,0)"/>
<path d="" fill="#117A5A" transform="translate(0,0)"/>
<path d="" fill="#0E6F52" transform="translate(0,0)"/>
<path d="" fill="#0D7355" transform="translate(0,0)"/>
<path d="" fill="#0F7757" transform="translate(0,0)"/>
<path d="" fill="#0F7959" transform="translate(0,0)"/>
<path d="" fill="#0F6F53" transform="translate(0,0)"/>
<path d="" fill="#0E7151" transform="translate(0,0)"/>
<path d="" fill="#0D7152" transform="translate(0,0)"/>
<path d="" fill="#107152" transform="translate(0,0)"/>
<path d="" fill="#137054" transform="translate(0,0)"/>
<path d="" fill="#117253" transform="translate(0,0)"/>
<path d="" fill="#127353" transform="translate(0,0)"/>
<path d="" fill="#116B4E" transform="translate(0,0)"/>
<path d="" fill="#137656" transform="translate(0,0)"/>
<path d="" fill="#0E7155" transform="translate(0,0)"/>
<path d="" fill="#117152" transform="translate(0,0)"/>
<path d="" fill="#117255" transform="translate(0,0)"/>
<path d="" fill="#117054" transform="translate(0,0)"/>
<path d="" fill="#0D7455" transform="translate(0,0)"/>
<path d="" fill="#117452" transform="translate(0,0)"/>
<path d="" fill="#116F54" transform="translate(0,0)"/>
<path d="" fill="#127252" transform="translate(0,0)"/>
<path d="" fill="#0C7252" transform="translate(0,0)"/>
</svg>
